<mxfile host="65bd71144e">
    <diagram id="PYnvWqV4brMmJVUqVuQF" name="ページ1">
        <mxGraphModel dx="1334" dy="1725" grid="0" gridSize="10" guides="1" tooltips="1" connect="1" arrows="1" fold="1" page="0" pageScale="1" pageWidth="827" pageHeight="1169" background="#ffffff" math="0" shadow="0">
            <root>
                <mxCell id="0"/>
                <mxCell id="1" parent="0"/>
                <mxCell id="40" value="Availability Zone" style="fillColor=none;strokeColor=#147EBA;dashed=1;verticalAlign=top;fontStyle=1;fontColor=#147EBA;movable=1;resizable=1;rotatable=1;deletable=1;editable=1;connectable=1;" parent="1" vertex="1">
                    <mxGeometry x="324" y="-246" width="255" height="784" as="geometry"/>
                </mxCell>
                <mxCell id="39" value="Availability Zone" style="fillColor=none;strokeColor=#147EBA;dashed=1;verticalAlign=top;fontStyle=0;fontColor=#147EBA;" parent="1" vertex="1">
                    <mxGeometry x="716" y="-246" width="257" height="779" as="geometry"/>
                </mxCell>
                <mxCell id="50" value="Region" style="points=[[0,0],[0.25,0],[0.5,0],[0.75,0],[1,0],[1,0.25],[1,0.5],[1,0.75],[1,1],[0.75,1],[0.5,1],[0.25,1],[0,1],[0,0.75],[0,0.5],[0,0.25]];outlineConnect=0;gradientColor=none;html=1;whiteSpace=wrap;fontSize=12;fontStyle=0;container=0;pointerEvents=0;collapsible=0;recursiveResize=0;shape=mxgraph.aws4.group;grIcon=mxgraph.aws4.group_region;strokeColor=#147EBA;fillColor=none;verticalAlign=top;align=left;spacingLeft=30;fontColor=#147EBA;dashed=1;" parent="1" vertex="1">
                    <mxGeometry x="251" y="-486" width="894" height="1088" as="geometry"/>
                </mxCell>
                <mxCell id="55" value="VPC" style="points=[[0,0],[0.25,0],[0.5,0],[0.75,0],[1,0],[1,0.25],[1,0.5],[1,0.75],[1,1],[0.75,1],[0.5,1],[0.25,1],[0,1],[0,0.75],[0,0.5],[0,0.25]];outlineConnect=0;gradientColor=none;html=1;whiteSpace=wrap;fontSize=12;fontStyle=0;container=0;pointerEvents=0;collapsible=0;recursiveResize=0;shape=mxgraph.aws4.group;grIcon=mxgraph.aws4.group_vpc;strokeColor=#248814;fillColor=none;verticalAlign=top;align=left;spacingLeft=30;fontColor=#AAB7B8;dashed=0;" parent="1" vertex="1">
                    <mxGeometry x="277" y="-447" width="745" height="1027" as="geometry"/>
                </mxCell>
                <mxCell id="89" style="edgeStyle=none;html=1;entryX=0.5;entryY=0;entryDx=0;entryDy=0;entryPerimeter=0;fillColor=#000000;strokeColor=#000000;" parent="1" source="56" target="57" edge="1">
                    <mxGeometry relative="1" as="geometry">
                        <mxPoint x="640" y="-273" as="sourcePoint"/>
                    </mxGeometry>
                </mxCell>
                <mxCell id="116" style="edgeStyle=none;html=1;entryX=0.5;entryY=0;entryDx=0;entryDy=0;entryPerimeter=0;strokeColor=#000000;fillColor=#000000;" parent="1" target="76" edge="1">
                    <mxGeometry relative="1" as="geometry">
                        <mxPoint x="647" y="-97" as="sourcePoint"/>
                    </mxGeometry>
                </mxCell>
                <mxCell id="60" value="AWS Cloud" style="points=[[0,0],[0.25,0],[0.5,0],[0.75,0],[1,0],[1,0.25],[1,0.5],[1,0.75],[1,1],[0.75,1],[0.5,1],[0.25,1],[0,1],[0,0.75],[0,0.5],[0,0.25]];outlineConnect=0;gradientColor=none;html=1;whiteSpace=wrap;fontSize=12;fontStyle=0;container=0;pointerEvents=0;collapsible=0;recursiveResize=0;shape=mxgraph.aws4.group;grIcon=mxgraph.aws4.group_aws_cloud_alt;strokeColor=#232F3E;fillColor=none;verticalAlign=top;align=left;spacingLeft=30;fontColor=#232F3E;dashed=0;" parent="1" vertex="1">
                    <mxGeometry x="216" y="-515" width="1074" height="1146" as="geometry"/>
                </mxCell>
                <mxCell id="61" value="Text" style="text;strokeColor=none;align=center;fillColor=none;html=1;verticalAlign=middle;whiteSpace=wrap;rounded=0;" parent="1" vertex="1">
                    <mxGeometry x="918" y="-227" width="60" height="30" as="geometry"/>
                </mxCell>
                <mxCell id="62" value="Text" style="text;strokeColor=none;align=center;fillColor=none;html=1;verticalAlign=middle;whiteSpace=wrap;rounded=0;" parent="1" vertex="1">
                    <mxGeometry x="918" y="-227" width="60" height="30" as="geometry"/>
                </mxCell>
                <mxCell id="64" value="D" style="group;" parent="1" vertex="1" connectable="0">
                    <mxGeometry x="524" y="-704" width="270" height="139" as="geometry"/>
                </mxCell>
                <mxCell id="65" value="" style="rounded=1;whiteSpace=wrap;html=1;shadow=1;strokeColor=#000000;fontSize=48;fontColor=#000000;fillColor=#FFFFFF;" parent="64" vertex="1">
                    <mxGeometry width="270" height="139" as="geometry"/>
                </mxCell>
                <mxCell id="66" value="" style="shape=image;imageAspect=0;aspect=fixed;verticalLabelPosition=bottom;verticalAlign=top;image=data:image/png,iVBORw0KGgoAAAANSUhEUgAAAUcAAADWCAYAAABCBEA5AAAACXBIWXMAAC4jAAAuIwF4pT92AAAJWWlUWHRYTUw6Y29tLmFkb2JlLnhtcAAAAAAAPD94cGFja2V0IGJlZ2luPSLvu78iIGlkPSJXNU0wTXBDZWhpSHpyZVN6TlRjemtjOWQiPz4gPHg6eG1wbWV0YSB4bWxuczp4PSJhZG9iZTpuczptZXRhLyIgeDp4bXB0az0iQWRvYmUgWE1QIENvcmUgNy4xLWMwMDAgNzkuOWNjYzRkZTkzLCAyMDIyLzAzLzE0LTE0OjA3OjIyICAgICAgICAiPiA8cmRmOlJERiB4bWxuczpyZGY9Imh0dHA6Ly93d3cudzMub3JnLzE5OTkvMDIvMjItcmRmLXN5bnRheC1ucyMiPiA8cmRmOkRlc2NyaXB0aW9uIHJkZjphYm91dD0iIiB4bWxuczp4bXA9Imh0dHA6Ly9ucy5hZG9iZS5jb20veGFwLzEuMC8iIHhtbG5zOmRjPSJodHRwOi8vcHVybC5vcmcvZGMvZWxlbWVudHMvMS4xLyIgeG1sbnM6eG1wTU09Imh0dHA6Ly9ucy5hZG9iZS5jb20veGFwLzEuMC9tbS8iIHhtbG5zOnN0RXZ0PSJodHRwOi8vbnMuYWRvYmUuY29tL3hhcC8xLjAvc1R5cGUvUmVzb3VyY2VFdmVudCMiIHhtbG5zOnN0UmVmPSJodHRwOi8vbnMuYWRvYmUuY29tL3hhcC8xLjAvc1R5cGUvUmVzb3VyY2VSZWYjIiB4bWxuczpwaG90b3Nob3A9Imh0dHA6Ly9ucy5hZG9iZS5jb20vcGhvdG9zaG9wLzEuMC8iIHhtcDpDcmVhdG9yVG9vbD0iQWRvYmUgUGhvdG9zaG9wIDIzLjMgKE1hY2ludG9zaCkiIHhtcDpDcmVhdGVEYXRlPSIyMDIyLTEwLTE3VDExOjQ2OjEzLTA0OjAwIiB4bXA6TWV0YWRhdGFEYXRlPSIyMDIyLTExLTIxVDE1OjUwOjA0LTA1OjAwIiB4bXA6TW9kaWZ5RGF0ZT0iMjAyMi0xMS0yMVQxNTo1MDowNC0wNTowMCIgZGM6Zm9ybWF0PSJpbWFnZS9wbmciIHhtcE1NOkluc3RhbmNlSUQ9InhtcC5paWQ6M2UyM2FmOTYtNTVjNy00ZWEwLTg5M2ItNWU4YzhlNWNhZjA2IiB4bXBNTTpEb2N1bWVudElEPSJhZG9iZTpkb2NpZDpwaG90b3Nob3A6MmJiOTEyY2EtZTVhNi04NjRiLTllMjUtMmNkMzM2ODlmOWVkIiB4bXBNTTpPcmlnaW5hbERvY3VtZW50SUQ9InhtcC5kaWQ6MWQ3MDZmMmUtNjY4OS00ZWQzLThlNWQtZDljYTFhNTdjMzE5IiBwaG90b3Nob3A6Q29sb3JNb2RlPSIzIj4gPHhtcE1NOkhpc3Rvcnk+IDxyZGY6U2VxPiA8cmRmOmxpIHN0RXZ0OmFjdGlvbj0iY3JlYXRlZCIgc3RFdnQ6aW5zdGFuY2VJRD0ieG1wLmlpZDoxZDcwNmYyZS02Njg5LTRlZDMtOGU1ZC1kOWNhMWE1N2MzMTkiIHN0RXZ0OndoZW49IjIwMjItMTAtMTdUMTE6NDY6MTMtMDQ6MDAiIHN0RXZ0OnNvZnR3YXJlQWdlbnQ9IkFkb2JlIFBob3Rvc2hvcCAyMy4zIChNYWNpbnRvc2gpIi8+IDxyZGY6bGkgc3RFdnQ6YWN0aW9uPSJzYXZlZCIgc3RFdnQ6aW5zdGFuY2VJRD0ieG1wLmlpZDo4OThkYmIwNi02NzkwLTQyNmMtYWEwOC1mYTA0ZTU3OGJlNmMiIHN0RXZ0OndoZW49IjIwMjItMTAtMTdUMTE6NDY6MzctMDQ6MDAiIHN0RXZ0OnNvZnR3YXJlQWdlbnQ9IkFkb2JlIFBob3Rvc2hvcCAyMy4zIChNYWNpbnRvc2gpIiBzdEV2dDpjaGFuZ2VkPSIvIi8+IDxyZGY6bGkgc3RFdnQ6YWN0aW9uPSJjb252ZXJ0ZWQiIHN0RXZ0OnBhcmFtZXRlcnM9ImZyb20gZG9jdW1lbnQvdm5kLmFkb2JlLmNwc2QrZGN4IHRvIGltYWdlL3BuZyIvPiA8cmRmOmxpIHN0RXZ0OmFjdGlvbj0iZGVyaXZlZCIgc3RFdnQ6cGFyYW1ldGVycz0iY29udmVydGVkIGZyb20gZG9jdW1lbnQvdm5kLmFkb2JlLmNwc2QrZGN4IHRvIGltYWdlL3BuZyIvPiA8cmRmOmxpIHN0RXZ0OmFjdGlvbj0ic2F2ZWQiIHN0RXZ0Omluc3RhbmNlSUQ9InhtcC5paWQ6NGNjNzBhYTMtMThhMS00MmVlLTlkN2EtMGM3Y2QxOWEzNmFlIiBzdEV2dDp3aGVuPSIyMDIyLTEwLTE3VDExOjQ2OjM3LTA0OjAwIiBzdEV2dDpzb2Z0d2FyZUFnZW50PSJBZG9iZSBQaG90b3Nob3AgMjMuMyAoTWFjaW50b3NoKSIgc3RFdnQ6Y2hhbmdlZD0iLyIvPiA8cmRmOmxpIHN0RXZ0OmFjdGlvbj0ic2F2ZWQiIHN0RXZ0Omluc3RhbmNlSUQ9InhtcC5paWQ6M2UyM2FmOTYtNTVjNy00ZWEwLTg5M2ItNWU4YzhlNWNhZjA2IiBzdEV2dDp3aGVuPSIyMDIyLTExLTIxVDE1OjUwOjA0LTA1OjAwIiBzdEV2dDpzb2Z0d2FyZUFnZW50PSJBZG9iZSBQaG90b3Nob3AgMjMuMyAoTWFjaW50b3NoKSIgc3RFdnQ6Y2hhbmdlZD0iLyIvPiA8L3JkZjpTZXE+IDwveG1wTU06SGlzdG9yeT4gPHhtcE1NOkRlcml2ZWRGcm9tIHN0UmVmOmluc3RhbmNlSUQ9InhtcC5paWQ6ODk4ZGJiMDYtNjc5MC00MjZjLWFhMDgtZmEwNGU1NzhiZTZjIiBzdFJlZjpkb2N1bWVudElEPSJ4bXAuZGlkOjFkNzA2ZjJlLTY2ODktNGVkMy04ZTVkLWQ5Y2ExYTU3YzMxOSIgc3RSZWY6b3JpZ2luYWxEb2N1bWVudElEPSJ4bXAuZGlkOjFkNzA2ZjJlLTY2ODktNGVkMy04ZTVkLWQ5Y2ExYTU3YzMxOSIvPiA8L3JkZjpEZXNjcmlwdGlvbj4gPC9yZGY6UkRGPiA8L3g6eG1wbWV0YT4gPD94cGFja2V0IGVuZD0iciI/PmN7rMsAACaqSURBVHic7d13nCR1nf/x17eqOk7amdm8y0YQJC1J4iEiBkDk4EAJAipg9sRDT70fngHvzp8/0cOAOSDigWAgKMgP9QjiEUQkZ5bdJWycmd1JHarqe398e5jZ2erq6p7qMDuf5+MxLnZVV3+7p/o9Vd+otNYIIYTYntXsAgghRCuScBRCiAASjkIIEUDCUQghAkg4CiFEAAlHIYQIIOEohBABJByFECKAhKMQQgSQcBRCiAASjkIIEUDCUQghAkg4CiFEAAlHIYQIIOEohBABJByFECKAhKMQQgSQcBRCiAASjkIIEUDCUQghAkg4CiFEAAlHIYQIIOEohBABJByFECKAhKMQQgSQcBRCiAASjkIIEUDCUQghAkg4CiFEAAlHIYQIIOEohBABJByFECKAhKMQQgSQcBRCiAASjkIIEUDCUQghAkg4CiFEAAlHIYQIIOEohBABJByFECKAhKMQQgSQcBRCiAASjkIIEUDCUQghAkg4CiFEAAlHIYQIIOEohBABJByFECKAhKMQQgSQcBRCiAASjkIIEUAd/fpjml0G0YJ8DduKNt98zToOX7iVkdFEs4skyrOB3YAlQC+wEJgFeBO254ANpZ/1wHPAlkYXNApddEmsXIQ9uwtdKDatHE7TXlkIMRVLgH2Ao4DlwJ7ASiBV4XkeJiCfAJ4B7gPuAR6uW0mnKQlHIaaPXYETgGOBo4FkDcewMVeWC4HXA+8tPf4A8Hvg18D/TLmkOwEJRyFa3wnAO4ETqS0Qo9i/9PPPwN+AK4ArgU11er2WJw0yQrSu0zG3vDcCp1K/YJxsP+CrwOPA54HZDXrdliLhKETreRNwO3AVcHATy9ELfAZ4Evh4E8vRFBKOQrSODuBHwC3Aa5tclol6gC9j6iXf0OSyNIyEoxCt4e+BR4F3N7sgIfYDbgW+2ORyNISEoxDN9zngOmCX5hYjsk9hbvsXNLsg9SThKETzJDCh+Nkml6MWrwX+ChzU7ILUi4SjEM3RBtyJuZ2eruYD92L6Xe50JByFaLwuzMiUQ5pdkBgo4GZ2woCUcBSisRxMmLy62QWJ2c3E0ZKtFPi++VFq6qWaAglHIRrrFuCwZheiTm4C9prSETwflUygUknw/HhKVSMJRyEa51uY8cw7qwQm/DO1HkB7HiqVRLWn0Z5X+Ql1JOEoRGOcCXyg2YVogEWYyStqozVWexplKdA6vlLVQMJRiPpbiJnEYaZ4M/Dhmp7p+ahsGmw73hLVQMJRiPq7CtOqO5N8A1hW1TM8H5VKoLJptNvcW2qQcBSi3s6ktcZJN9Llkff0NVprEisWotrSIOEoxE4tBXy92YVooqOI2Mlduy5WNo3V0wlNbogZI+EoRP38C2bar5nsK5H20hp7XjdYyixg1AIkHIWoj07MrNoz3UrMpL1l6YKL1dmG3duJzjdvQa3JZJkEIYIlgcOBPUo/8zD99wYxq/c9iZli7G4g6FLn/UC2ISVtfZ8Fri671fOw53aDY0PRa5mmKwlHIbZ3IGa9luMwC1pV8gRwA6bx4fEJj9fWlWXntAdwBHDXdo8qhR7NY8/pNsuw5ostE4wgt9VCjHkVpi/iX4B/JFowgvnifwJzFfkDzNf7QKbP3IyNssMfC+16qFQCe8mc0pjq1qhrHCNXjkLAuZihfZXWfA6jgPMwa760TsVZ6zgZswzE4CuP5Is4r1qM1ZZBj+SaPtHEZHLlKGa6S4EfMrVgnGgf4ICYjrUzSQFvGQtAf+Ma7J4k9oI56Fyh5YIRJBzFzPZt4IJmF2LGUOoEijn8LWtwXnM2iYNPQuf6W+52eoyEoyjLUtCRaI0OuXXwaUyLsmgIBZ57hC4MkzjgNNLnXIG1YBV624aWaoSZSMJRBFLAiGfx7GAKLI3WLXoG1+Zw4AvNLsTMotFDG5elTv7agalzTK8e3bcWrNZt9pBwFIGUgpTl86NnZzM8kiTl7FRXkDNphpyWoAvDqPa5OPue8gfgO8C+pLpAt+551bqxLZquN+nxYH+G69fO4sxXbyA/mGrFevNqvQ9Y3uxCzChKoYc24xz0jgLpzi7gfeQH3qs33HOvSnQ6mBzygD5gI6aT/aPAw5jO9tuaUWwJR1GWBmYlPa5a08Nbdhmg3fHJe9P+ZuOiZhdgxvE9FPjOfm8fe0T7z12v/JfvOER1vxp06HIIL2IWI7sR+D2wtr6FHTftz3RRPxqYnXJ5eCDDjWu7sVNus4s0VUchnbMbTo8OYC3Yy7P3OPaVvNEb7yuS7Ioy2/ci4CRMd6tHMHNjNmSpCQlHUZEGNhWcneFsmc5rRE9PSqGHB7W951t97KSZ3nt0s6f7HrNUspPgYelldWAmsfgDcBvwpphLu53pf7qLutKAozQZ26/yPG5Jf9fsAsw02s2hsu2ec+A7LEqddvSmB3w9/ILGaZvKoY/CLOZ1M7DflAsaQMJRzBTtmOmzRMMoGNyEvfJI31qw9yuLwuiN9ynia+84FvgrZnx7rCQcxUyxGJjV7ELMLBqKnnb2PVUxljVewdUb71fKaSPGWxEFfAmzbnZ3XAeVcBQzhYWc742V24aau9R39jl5vCGm/wmttz2nSXbU4xWPw8yqtE8cB5OTRQgRP2WhB/tx9nyrT7Z7PBw33Kt1cTiBqtvSqyuAe4Cjp3ogCUcxU7iYjsaiEYqjkMl6zqHnKyaMntZbHko0YCRBBtMn8oipHETCUcwUT2E6FIt6UzZ+33oSh5zrWwtXjV8ieoUCI+sLymnI6hEW8EfMZMQ1H0CImaALMyxN1JNlowdfwpq9SzH55s9ud9VIbourR7cUseOaOrOiJHArpn9k1WT4oNgZ7Q4cBhwErAJ6MEukdjazUDs9ZaFz22Ak56Xe9V1N2+xJ+aKIMiQmZosxi3u9pdonSjiKncUczOiJ04FDgLrV+IsAyoLCCLpvs58+/VLffvVxyR32ycxOqOz8pO57FJxMI0t3PGZdoG9U8yS5rRbTXQ/wZeAZ4OuYuRolGBtJWej8EP6WDTr1lv9TcI68IPjzt5wEHUuULg7RhBluvw4sreYJEo5iOvsQ8BjwceSWuTksGz20EQY36dTbLvETx/97ipBcsRYd7SrwIXQmnnr5VjU7SziK6Wg2ZgqrbwLzmlyWmUlZ4Hvojc+hku2F9LuudhOv+5hNhUtCteSNSTX/MF8PvkAd+zqWczxwZNSdJRzFdHMw8CBwQrMLMiMpZUKx73l0/wues+9bi5kL7rLs/U6L1n6hLGUdcrFWyY4CQ2tMyDb2FvuSqDtKOIrp5A3A/wALm12QGccroEf68Tc/j972kmvv+rpi+txr/dR5Nziqd6VDFQmnulYk7DdeoVX78oLuf1KT3wLareYQU3EwsH+UHaW1WlTka0jbPiiNpmmLxR2J6bPWIpT5Qvu++e9SLxXtFSo8xwevYHq0lBsporXZJ5SOMG+DjtBzpsI+WoPGU9ku1+pdoewlB/v2vidb9h7HOkzh4kr17pOyT7jOVY/9qKDX/d7S21b72h1OoCzLfJ7m0Ao1/jkpe/zHcsw+dpIazsgLgbMr7SThKCpKWpoNowk818JWTVlmeCVm7r7WYDno0QFwc65yUnmzNKMPylFWpguUpQMDR/tgJyyV7UmbL3+ZfSwHMt3h4WnZvkpmh0qP7Lij74GTxmqfU/59eEWfdGdKdcxPBy505buQbINsr291LXKtxftncNIQ1x2nk3WsfT9ss/f7NZv+VtS5jQ75AfDyWuf6hnFzvi5s1Xj5JF4ug18ANwfuqIc7nNduDka3JEl2ODjZahbrOhX4CNAfWrwpvj0xA3QkfO7ZnMXLO6QtzYjX8GvH6zHjZVvDcB/WvFe5yWMv9lS2W5urRxNqKtMDVplw9H2Nk1CqbTbh4ZgAp+IoEguY0myxpQJECbpE6aceFJajmHdQdsJZpdT473v7MnoFcEegOOjj5tBD6zz/oW9YeugFi0R71NdMY2YR/3nYThKOoqKkpdmYT7Ah57BLVx7tOY28tb4U2KtxL1eZv62f5OGvVfbub0oBDRsLF2Bn7s8Z/N7sJNhJm9SsdgA1azd4+uea/ieoIhzBtFxLOIqpyTo+q4eS/PDZ2XzuoBewaVgvtb2BCxrzUtFZvfPxHrpOFZ20R9fiHb/EWqOcVAEnlQO945WZ1qB9VFsvKtlmboEDd0KpjnlZEhmrzD7muqpjbqnurcxhlNLKThRBBVeIaA2WZW7nd1RTpV4NNGAqWn0XtGejPYfiMLgj6OJQkcLgKMURi+Kwr3Uhi190dP8Tnt7ysCI7t9oyHom5Ii17Kks4iop8DT1Jl7s3t+ONOiQdn5zbkI4O32/Ei1QtmUUXhqz8LV8oOwmasrCxVBL0jl/asYhKpFFOqszSpKWdUh0KK0Hgd1ib/1GpjlcaMIILoyCRLaAsHVweUyVgtc0xIak1pnXJV3TMS1g9y4v2iiO1tfKoBPH1cNHk+z298a+uHnjS1sMv2uQGirijmsKg1rqYwi84+AXwiuAXLNx8qvT/tdauhfbAydgqO8800oQv8TrZMswY/MfL7SDhKCLpSPisGU5y6VNz+diqF1Fust7rbR0FHFrfl6iR74GdxOoJGY2mtQ065LZXmQYE3w+9LtO+Z8IhZCdd2ED5pmsFaIXvt1fYB98rsH13BIUu5qCIo7Ipz17+d8Xk8V9Q1tLDylymRuLrjfe7+vkbtX7pT8offimBO6KwkxZWsl2psSvYsRbr0r/KsklkbVQ7oFBq+wl/qgzGsTe9JxKOYqoU0JVw+enqXs5Y2sfCrlGGRlJYZe7UYnBhvQ7cEJO/vIH7VF7utvGDSCa9vvlfC69guU/+Ae+5O4rpM3/i2vufUX12DDzleg9d5umXbrd1fqutMrOVyswJv+qtr93CNkoncBGJBtoTPnlP8cVHF4C2SDteva4eFyEjYFqIBjuBNWcFOOlE7vIz8Z65vVjNAfxHvldwbzkT//kbUiTaHdW1XJFob2YwgpnOrCwJRxGZrxXzM0VueKGLq5+ejZP06nUCnYqcm63H91Dts8GxnML1F5p+kpUUBl3vtg943l++kMCyHdW50nRVavi0joEWhG2UE1BUxQJmp12++fQc8vkEmaRXj/P8DbEfUcTD91GzFuOv+6vlPXpD+NXjyIaie8sZnr/mZlt17apw2qrpqN0Is8I2SjiKqmigw/HYWrD55dpZ4PjY8Xb0SGNm8BatSlloH8t75o/lO4YPv1x0bz3H1wOPp1TXytIZ0hJXixOFhruEo6iarUzr9ScfWMQ9L3eS7sqZEXTx2BWYH9fBRB1ojUqllN6y2iUoYHzX827/sK8HnkqpjmW1tCQ3SuhJK+EoqqYxHcO7kx4XP7yA/q1p2trycQXkyjgOIurMtqEwmsMseTuR793zGe1vvC+lupa3cjBWJOEoauJrmJ8u8tS2NGffuYK+kSRt6WIcASmT104XasfJGPXaWz3/yZ9aqnNZC95F72BT2EYJR1EzVyuWteV5bFua8+5agacVbSl3qg00IdPIiFahCznonN/GxLHlxWHfe+Arlkr3WGZUT8un44awjRKOYko8rVjeVuCB/gyXPTYfHA/HmtKXQgYmTAeu71tz99hu6I7/zDWe7n/MIj17utxOPxO2UcJRxGKXbIEvPjqPm57vJdWVCxzCG1FL9fUQAXwPlU5hLT1s/Jfsu76/+kZId6sW6cMYxdNhGyUcxZRpIGVr5mVcLnlsHs9u6CCbLtZ6V7U53tKJuOnCEFbvCs9aNh6O+qW7XPoft1Wym2lwOw0wAjwUtoOEo4iFr2Fuqsjq4RSfun8x2Jpspqb6x9BKctFkyoLBAazFByRUqv2VKhB/9a+T+K7V5OGA1XgW2Bi2g9TviNi4WrG8Lc+j2zL82/2L+cS+L9GWcRkeTaCiT1BxG2YRLWm1bkG6OIqaNddNHPY+jwmNMSo739OWY02lPqXBvlxpBwlHESsFzEkVufy5Xu7c2M53D1vDsu4RhodSUQNyC3B4fUspaubmUV2LsRbut93DqnMlY1OfNW0JtphNm2tgMT1owFGwtK3Ac8Mp3nnXctZuTdPWnp9GFxWiLGWZZVpHB7Z/3Ms1pTix0WaedCcDTi84PRKOog506WdZW571OYdz7lzJuoE02Y7YRtEIERvtm1C058HLm+CX/6347V1KbqtF/XhasTRbYO1IkrPuXMnPXvsci7tGGR5Kll11VIhG0j4kusDPwaW/tLjxQcXqzZB0pM5R1JmrFUtKAXnmHSu48sjnWDJrtGIdZDbpge3HeCtulk/JF2xcXwWGs9aKrOOhkl7I62r8os2oazUu4HXp83DKfB5KQ9FmpGiXXUMr4suggGzKLR0n6A0WIO1Bd+/2Rehpw2n3zGKxFjAKft4sL1ZVjwUNjoM5Tj16BI2A62JWqSgFo/Y05//E5vqHLFbO0ew6x/S+kHAUdTcWkGuGk5x15wp+fMRqVs4dhELA6adMiD29JcvmfIKUHc9IC08rHKXZf/YwKccnP+rgamWaEDRkEz4qXWRwMM0jm9vLvm7BV+w7a5S2jjz+aKKuIak0ZFIeJD3WbMnywkiSTEC5RlyLXTvyzO8egbzDSMGuuk3EAtJpE4qPb25ja9EmGTDSSRdsrOEMyXvuRXXMHX98zfP4z2UgrRgtKvZeoMn2avCVWWR1CNyQpXC0hoQDdAGD8LcnzB8wK6bP1i+9lVXLNE4nMGBeS7tw/g9sbn1Ksf8uGl+P76uOfv0x8by6EBXYSrN2JMmu7Xku3Gs9KQWuv/3Zn3B87t3UxjVrehh2LdIxhePY67x27hBnrdjCQfMGAfALNlamSH40wfUvzOKa53t4cmuajBP8ujnPYu+uUd6+vI8TF23FSrv4o06sIamATMqFhMe6gQzXPt/Ddeu66c/bgeUacS0WZoucsrSPU5b2M7sjDznHXEmG0SZ80uki2JrHN7Vz9fM9/O6lLvKeIhn42SuzMGF+cPshgnYKZacBn5ECrFoEXZ2a5V1wxO6aw5dq6AS2QrHIK5/VdqFYgNseUVx5t8V9ayBhxxeOng+uD0es0JxzuObQPTX5UbjgCoubn1DsNmc8FF95pxKOopFspdlWtBku2lhlxmC7vqIr6ZG2ffyYbqsVGl8r1ucSpCyfNywY5NxdN7PXrBFuWNfNz1b38GBflozj05Nyy76upTRb8g45z+Kg3mHOXNbHCYsHIOXijyQZ9YJv2St55ZY26ULS44WBDNeu7eG6tbNYN5RiTrpIm+PjBZRr7DPtzzu8qnOUk5f1c+qSfnpKITlcsLcrk9ZmTs50pgi2zyOb2rl6dS83v9BFf8FhQaZA0tbhn70/eaaysdUCwbZgYBRGcgptaSzg0OWasw7RHLOPhgzQX3rTPUAe7nxEceW9ijueNq85t6P6zzCK9YPQnoSDVmi2blM8sh7md+4YjCDhKJokrDqpnlV5loKir3hxJMGctMuStjwP92dJWJrZKbdi2cbKp4GNOYdRz+KQ3mHOXD4Wkh7eSIKcZ0Xu+K41tKU8SLq8PJDh6jU9XL92FmuHU8zNFOlwvMBQDHpvAwWbvrzDbh053rasj9OW9tPRnodcwvxBUppM6Urx0c1tXLW6h5temMVAwWFhtkDGDg7gWinMitsbtkHBhSNWas44RHPsARos+MPfFD+7W3Hn0wrLgoWdE5bOrgNLQdGDvmFzxdqTDQ5GkHAUM5SlNDnPYsS16CotFFbt91GZO0w25BKMuBYHzx7itGV9nLjLAE7KxR9NMuqGXEmONbSkXDYNZPivNT38am03a4eTzE0X6Uj4Zb+44e8N+gs2W/IOu3fmOG1pP29b0kdHRx58i8c2Z/mv53v53diVYh1CMahMnoaXt0LBVZxyoI9jw7X3WdiWZmGXueKs5f3Wi4SjEFM0MSRzrsVr5pRCcvEAtuMzMrr9Uitam4k6nHSRl7elueb5Hn61rps1w0nmpFw6Y1i0bCzm+go2fQWHvbpGOX3FFvpHE/x0dS/9eZv52SIZWzc0kCxlAnD9NvM5zO8yt/itFIpjqgnHWcABmDGvvZgGrk2YCSMfocIg7ohSQJIdp62ygRwVFsSpk8XA3pj33YUp2wbgJeBBYDim18lg3ufkWnAbGGXH6egnc0rH8Nn+IsjClDlHtIsjB8hWeD2rtL2ewyIUZrGtoM+kFg6mvIUI+6aBBFWeh2OBtDHnUPAs9uoe4aJ9XubABdsYGUpNaAAxrcLfe2Iulz87mxdHksxNuXSVQjHkl7S4VLaJ5bIwn8/qcmVSCvryNnnPAgVdCY+M44cFsIU5lyDaOWMDgxH2q0a587kWqvQzShVT4lUKRxs4DTgL2J/yCx9tAR4ArgV+Ru2B8V3MYu6TvwwW8B/AZTUet1qLgTOAfwD2AspVD78A3IV5zzdO8TXvApay44lgAR8Bflnh+e8BPseOn50C1gHHYKZpquQ04D8JP4lUaXt/6d+1mOmfHgZuBbZGeJ1KOoDbgbnE0+PNBn4AfCbCvtdixncHnYf/F/hG2JPH6iTXDCfpcHx+fMRq9l+wjfxwklSmwOot7Xz+4QX8eWM7HUmP7mT5BqAJdgPuwwRGUDgeh/m8yhr7ECPcPK8CfjPhrVRiYcIxh/nd/wW4t3SMWrPgVOBrxPOHEcx7eQ9wc5ntxwF7lv77buCusH6OZ2K+bLtFeOFezFrDbwD+FbgY+H6E5022HFhYZlujZmn5HPAJxv9yhlmMCZPTgHuAzwK31Pi6e2GuTIP0lnl8ormU/+w6iT5UtJcKi51PsKT07wHASaX/7geuB76D+UxqZQP7EG9f3MUR99uN8p9lxZURx9JkRXueDbkE7/rTcq74u+dYtayfyx9YxKWPzyfnKRa1FUyyRavr+yDlzw+AT1EhHKuoUcwS/bMK8trSvxsxFzQX13CMHsr/Dmo1q8zj7wb+H3An5mO6AHh/0BcmAVyNuRqKEoyTLQa+B9xA+C8zyLaQbVGueqZiD+CvmICLEoyTHQL8DvMh16IvZFuU29fRCseOevU11VvlbuBdmL++36b2cNOYO5I4DUXcbyBkW+Tz0NOK+ekiWsGn7t+Fi+9azqWPzcdWmsXZYuTLMkxYvbvCPsdi7jziUKkKJ6q5wOeB+6l+baB6VNnkAx7rAA7D3Jm2Y8bm3AocNzkc2zFz6Z0WQ0HeirlymFtpxxZwCKas+8dwrH8GfhHDcXYG78dUt8zY5VbdUkD2FW1+9uxsupIu3Umv2gaIdxDtQuMjNRWy/g7AzNOZbHI5gmQwF2VPYbIqD1yBaTzfzk3AgTG+8O7UfpvZKPMxZeyM8ZinYOpPhWnMuoNoVQP11pRZqFytaHN8FmULtbbMXhBxv3MxDTataE/gi00uQ9CQoY2Yu65/Bz6Aqee8Bnh64snyJeDIiC/iE72idD8a15BSi18Q/fa/msrh9wJvq744O6WFmHrIZutudgFqcCSmPjqKWcDp9SvKlF1Aay69+1XMHfMpwPGYK8fLxuqD9sY0QlTybeA6TNcdgIMwFfGV6kM+iGkpfKCaEjfAucARFfZ5CXMVeDPwIqZO9nWYD/KtFZ77g9LzotZ1tbo1wJWTHlsGHEXlCvwjgPOAH8ZUlu9gzqeodZqdmB4B080/Vbn/BcDldSjHmAHM93kQcyU2Nn3nEuBg4JyQ59qYRturpliGBzGZo4h2NzC231Nltvdjrhr3wnTTegrGT6zPVTj4auBExkNxzA2ln2+X/g1ryfss4y2arcCmcivaLZguPf2THv9J6eec0r/ldGI+9IrrVUwTjwCfDng8gWmEuYTw6okvYD6vOCr8f4jpMrIzWwicXOVz9sNcbd4Ze2mMEcqH22XArzAXUOXsHUMZ+qjPhdajE/+Pheki8w8hT9iC+bAnB+NE95X2CevT9PfALtHK2BBvBhaFbL8H0wI4ORgnuoLKtzGVrqqnk7YyjxcxXbcOJbzVfQHmyiEOcXfzaEUfDNk2SvnG7o/GX5RX2IRXQ12PabsoJ4460YbMpGlhAiDsxT6JuZ2s5Bng4xX2CQvhRjuxwvYzIx7n56Wfcl6N6SY0EzxO5T8Gx8f0WutiOk6rsjH11kGGMHc05bo6nUT0vqr18HTItjg69Hdg+kQvx/SECPvZHdPFqepAdYDXhGzfQPht42TfwdyCBw35cigzxKlJDgrZdgvwXBXH+jLh3Z8OA56o4njT2Q2Y0TL7ltketXGhkvMwdU9R/YHqfqfN9nbKN178CXOFdj5mRNlkFvAhgqtA4lCpWuTYkG1hfZmj2p/xW+BKdY42JndWEd4XeAcOsGvI9j9Rff1Qq3fdAVMvFtaA8Jsqj/cA5hewvMz2Vmyhq6ebKR+OCzAnbOQxrmV8qMr9z2d6heOFIdvGLlguJzgcwQyV+wzxDb8b41O++mwuZhDE7iHP/3MMZZg49juKHmq8cmwP2f5ytQecJtoI75AaVm8WxMeMLy4XjjNtgfqwSUgyBE/qUG9xT4xQTwdR/s6mn/Fx9tdj7u6Czq+5mKvPq2MuW0/pdUcxv0cwdc6dmPHoYfWRL2E6gzfaEDXczjuE/2WZqWvM1PK+w+akb3QQTNbotf7CPguf5n8ere6jIdt+yPisQC7m6vGTZfb9J+IPxxSV6+vLuZD4hibWnUV4HcCKRhWkwbYRXv9Q7RhVG9Pfr5z1VR5vsihTtbVS4JS7ggbTT64ZU89NF7MxV3xBhoCLJj12EeWvig+mfPVGo32f8IbLelpKDaOjHODZkO1HYEYVhHVnmWwJ4x1DJ7/W1iqPVS/DmNvgct1BTsH0yYvqMMLrMKPUdYVdrdYyEcZEA1RZGT1FbwnZ9nyjCjFJnVYlid35jN+uTjYMfAxTJTQ2Vdlo6afc+7sQ0we1mS7BzDkQl/WYhr+othBtHs/tOJhRA+UGrLdhOm9/NOLxPs14C9nkcExjWrFapcHmHky/vCCrMBXdURtmwuYI1EQbmbGV8v1AjwR+VOH5YZNmDBF/xXw5H2J8KrMgcY1SuRXTdahc38uJLEwL+nTw4ZBt8zCzx1TjDMz3d6DG8kzF7Zip1O6O+biPAO+L+Zg7cDBhlaN858wLgP9PeMdOMHO4hV1tjWLGL9Yq7onUf0X4gP4rMfMJVupP9zHgjSHbb8PMmF7JM5QfPfB2zF/ezWW2dxI+jntNhNePotLv4HjgmxX2+XVMZfkM8X/poqjnhP4nEj4woRZJTH/JWqfSm8zHXInlS8euNOtWPX5HU72TisTCXLFMHi872W8J761/DvD7Cse4hKn1cYp7fPIdhPc97MJcXb6pzPYk5gt6SYXX+WrE8oQNh8piwjyoJbATMwt5NuT5cZ2g5eoK98PMZvLbCs//LfH1dZ0d03GqVc9x8mHdd6ai2m5PYTZjZu7aDXgV4fWIRwFfj/G1x9RzeY5XjNVz/RumriPMZZiJGn4NPFZ6bDfMsMDDKzx3G/CVGss45nxMh/UoLclZTH+qSsH1ScJni1mAubK+CXOLPdawchDmai6sjyiYwIt6a/5bzMSg5RyJ6fh6FeN9xQ7FjOSpNOlDpdCKahVmyOTYPK1zMPW2USv9K42gqkZTph/DfAcOINp52Ib5w/SlCPvuiQmTelhCddVEYXzG76ZymO/lmyk/y/Y/Yv6w3xbDa49ZjpmzQBHeM2IiG/hvqhg4MPYLXoOpl7i0wv4HUtt8j+9h6uuK7Ff6iWoXKofjDZhB8idV2O94ahv2FnUIIpjZkh8gvO5wEdUHzG8Ib3Srxjzg7BqfexE7xyihVaWfqFYSLRzjvLoL8lHiCUeFuYMZ+z4PYYaMhlWXXIX5Ax5Xj4oVwLdqeN6/UkU4Tvzr+zXq09T+n5jJIxttQ8T9zsS0XMftbKoPg7DK+FpFmYqu3n5M9Q0JO4so3bg6gHeGbL8MMz7/gJCf3QlvtDuG8QWk4nYdZlGycuZT3TDkeqmqWm/yrcnphE83VK1LqV89SlxGMbenj8d4zI9QuR43yJ+JN0Q+SLzvqxb/gbkVFeWdR/lWd42p234Sc2dR7ucp4F8qvE49l1F4F+Fr/ryD8kMdW1JQvc3JmCnDp6KAacWtdqLOZnkZE5BTvXJej2lxDF26s4KLiKdl8ZOYeTab5SFMVcTkTstiR2GNnb8h+nDWjZRfehTMEsthw4WnYoTKfwSvoPpF95qmXKX2pzEdwG+t4ZjXYOoGo7bSTlRx2csqVDtl0zbMlfPZVN8nbhDzfvdm6utXgwm2tzFp8s2I7sZ0Lao1YKeylk4BswLjWZh6ubAvaiVjc42WE6V/Y63i7E5Tad7J8wlf5bPaJUbCulK1EW1wQypk2zzK58YNhA9X7Mb0fYzyu6tHp/2qgjmsxe3PmG4sh2C+qIdgWosnf3CDmMaEP2HqHabS2fZGxheKnwqb2tdMvrL0cwKmoeZgTF3N5FaxTZgg+iPmhJjqEMHJfoGZYOAkzNXo/ph6p8mf/zDmM/8bpuV9qp3sH8G0blcaA2tjrhb6MBMK3IfpxRBX/W0eU0/Vw44d2C3ia2QK8nNMuMdxHt5fYZ9egj9vG9Ntptrf502Y8dfz2LH8FtH6aU4cgTJxfwvz+w5a4nTMexmfNSdo4MEsTIPKwxXK8BjmqjmuRhybKmcPV0e//pio+87HdNlYgOkwrjDB+DLmjUbp6FxJgnhmbLExffLiGMO7G6ayez7ml64YD4T7aVCfK0y3oRWY7jNjf1X7MPU8TxBtQuIobMzvN0o4hs1GHYckwXODWpgvaL1G/TTyPJyFueKe/Fpjf3xqlQ04poX54zpQ4bmK8T/Ck8PRo/JQvLHXCfr9ZEuPV+q9YpeOEWc45qs5ntK6nue2EEJMT83qSCuEEC1NwlEIIQJIOAohRAAJRyGECCDhKIQQASQchRAigISjEEIEkHAUQogAEo5CCBFAwlEIIQJIOAohRAAJRyGECCDhKIQQASQchRAigISjEEIEkHAUQogAEo5CCBFAwlEIIQJIOAohRAAJRyGECCDhKIQQASQchRAigISjEEIEkHAUQogAEo5CCBFAwlEIIQJIOAohRAAJRyGECCDhKIQQASQchRAigISjEEIEkHAUQogAEo5CCBFAwlEIIQJIOAohRAAJRyGECCDhKIQQASQchRAigISjEEIEkHAUQogAEo5CCBFAwlEIIQJIOAohRAAJRyGECCDhKIQQASQchRAigISjEEIEkHAUQogAEo5CCBFAwlEIIQJIOAohRID/BdQ1tC44nx82AAAAAElFTkSuQmCC;shadow=1;strokeColor=#000000;" parent="64" vertex="1">
                    <mxGeometry x="45.46451612903226" y="26.106598984771573" width="159.56776649746195" height="104.42639593908629" as="geometry"/>
                </mxCell>
                <mxCell id="68" value="&lt;font style=&quot;font-size: 24px;&quot;&gt;DNS / CDN&lt;/font&gt;" style="text;strokeColor=none;align=center;fillColor=none;html=1;verticalAlign=middle;whiteSpace=wrap;rounded=0;shadow=1;fontSize=48;fontColor=#000000;" parent="64" vertex="1">
                    <mxGeometry x="5.5" y="8.47" width="151.5" height="21.17" as="geometry"/>
                </mxCell>
                <mxCell id="109" value="Private subnet" style="points=[[0,0],[0.25,0],[0.5,0],[0.75,0],[1,0],[1,0.25],[1,0.5],[1,0.75],[1,1],[0.75,1],[0.5,1],[0.25,1],[0,1],[0,0.75],[0,0.5],[0,0.25]];outlineConnect=0;gradientColor=none;html=1;whiteSpace=wrap;fontSize=12;fontStyle=0;container=1;pointerEvents=0;collapsible=0;recursiveResize=0;shape=mxgraph.aws4.group;grIcon=mxgraph.aws4.group_security_group;grStroke=0;strokeColor=#147EBA;fillColor=#E6F2F8;verticalAlign=top;align=left;spacingLeft=30;fontColor=#147EBA;dashed=0;" parent="1" vertex="1">
                    <mxGeometry x="733.25" y="95" width="222.5" height="185" as="geometry"/>
                </mxCell>
                <mxCell id="70" value="SES" style="points=[[0,0,0],[0.25,0,0],[0.5,0,0],[0.75,0,0],[1,0,0],[0,1,0],[0.25,1,0],[0.5,1,0],[0.75,1,0],[1,1,0],[0,0.25,0],[0,0.5,0],[0,0.75,0],[1,0.25,0],[1,0.5,0],[1,0.75,0]];outlineConnect=0;fontColor=#232F3E;gradientColor=#4D72F3;gradientDirection=north;fillColor=#3334B9;strokeColor=#ffffff;dashed=0;verticalLabelPosition=bottom;verticalAlign=top;align=center;html=1;fontSize=12;fontStyle=0;aspect=fixed;shape=mxgraph.aws4.resourceIcon;resIcon=mxgraph.aws4.simple_email_service;" parent="1" vertex="1">
                    <mxGeometry x="1046" y="167.5" width="78" height="78" as="geometry"/>
                </mxCell>
                <mxCell id="53" value="S3" style="points=[[0,0,0],[0.25,0,0],[0.5,0,0],[0.75,0,0],[1,0,0],[0,1,0],[0.25,1,0],[0.5,1,0],[0.75,1,0],[1,1,0],[0,0.25,0],[0,0.5,0],[0,0.75,0],[1,0.25,0],[1,0.5,0],[1,0.75,0]];outlineConnect=0;fontColor=#232F3E;gradientColor=#60A337;gradientDirection=north;fillColor=#277116;strokeColor=#ffffff;dashed=0;verticalLabelPosition=bottom;verticalAlign=top;align=center;html=1;fontSize=12;fontStyle=0;aspect=fixed;shape=mxgraph.aws4.resourceIcon;resIcon=mxgraph.aws4.s3;" parent="1" vertex="1">
                    <mxGeometry x="1046" y="-246" width="78" height="78" as="geometry"/>
                </mxCell>
                <mxCell id="182" style="edgeStyle=none;html=1;strokeColor=#000000;fillColor=#000000;entryX=0;entryY=0.5;entryDx=0;entryDy=0;" parent="1" source="48" target="181" edge="1">
                    <mxGeometry relative="1" as="geometry">
                        <mxPoint x="1368" y="324" as="targetPoint"/>
                    </mxGeometry>
                </mxCell>
                <mxCell id="48" value="CloudWatch" style="points=[[0,0,0],[0.25,0,0],[0.5,0,0],[0.75,0,0],[1,0,0],[0,1,0],[0.25,1,0],[0.5,1,0],[0.75,1,0],[1,1,0],[0,0.25,0],[0,0.5,0],[0,0.75,0],[1,0.25,0],[1,0.5,0],[1,0.75,0]];points=[[0,0,0],[0.25,0,0],[0.5,0,0],[0.75,0,0],[1,0,0],[0,1,0],[0.25,1,0],[0.5,1,0],[0.75,1,0],[1,1,0],[0,0.25,0],[0,0.5,0],[0,0.75,0],[1,0.25,0],[1,0.5,0],[1,0.75,0]];outlineConnect=0;fontColor=#232F3E;gradientColor=#F34482;gradientDirection=north;fillColor=#BC1356;strokeColor=#ffffff;dashed=0;verticalLabelPosition=bottom;verticalAlign=top;align=center;html=1;fontSize=12;fontStyle=0;aspect=fixed;shape=mxgraph.aws4.resourceIcon;resIcon=mxgraph.aws4.cloudwatch_2;" parent="1" vertex="1">
                    <mxGeometry x="1185" y="375" width="78" height="78" as="geometry"/>
                </mxCell>
                <mxCell id="37" value="Private subnet" style="points=[[0,0],[0.25,0],[0.5,0],[0.75,0],[1,0],[1,0.25],[1,0.5],[1,0.75],[1,1],[0.75,1],[0.5,1],[0.25,1],[0,1],[0,0.75],[0,0.5],[0,0.25]];outlineConnect=0;gradientColor=none;html=1;whiteSpace=wrap;fontSize=12;fontStyle=0;container=1;pointerEvents=0;collapsible=0;recursiveResize=0;shape=mxgraph.aws4.group;grIcon=mxgraph.aws4.group_security_group;grStroke=0;strokeColor=#147EBA;fillColor=#E6F2F8;verticalAlign=top;align=left;spacingLeft=30;fontColor=#147EBA;dashed=0;" parent="1" vertex="1">
                    <mxGeometry x="340.5" y="339" width="615" height="173" as="geometry"/>
                </mxCell>
                <mxCell id="104" style="edgeStyle=none;html=1;entryX=0;entryY=0.5;entryDx=0;entryDy=0;entryPerimeter=0;strokeColor=#000000;fillColor=#000000;" parent="37" source="59" target="58" edge="1">
                    <mxGeometry relative="1" as="geometry"/>
                </mxCell>
                <mxCell id="59" value="RDS&lt;br&gt;(Master)" style="points=[[0,0,0],[0.25,0,0],[0.5,0,0],[0.75,0,0],[1,0,0],[0,1,0],[0.25,1,0],[0.5,1,0],[0.75,1,0],[1,1,0],[0,0.25,0],[0,0.5,0],[0,0.75,0],[1,0.25,0],[1,0.5,0],[1,0.75,0]];outlineConnect=0;fontColor=#232F3E;gradientColor=#4D72F3;gradientDirection=north;fillColor=#3334B9;strokeColor=#ffffff;dashed=0;verticalLabelPosition=bottom;verticalAlign=top;align=center;html=1;fontSize=12;fontStyle=0;aspect=fixed;shape=mxgraph.aws4.resourceIcon;resIcon=mxgraph.aws4.rds;" parent="37" vertex="1">
                    <mxGeometry x="71.38" y="41" width="78" height="78" as="geometry"/>
                </mxCell>
                <mxCell id="58" value="RDS&lt;br&gt;(Slave)" style="points=[[0,0,0],[0.25,0,0],[0.5,0,0],[0.75,0,0],[1,0,0],[0,1,0],[0.25,1,0],[0.5,1,0],[0.75,1,0],[1,1,0],[0,0.25,0],[0,0.5,0],[0,0.75,0],[1,0.25,0],[1,0.5,0],[1,0.75,0]];outlineConnect=0;fontColor=#232F3E;gradientColor=#4D72F3;gradientDirection=north;fillColor=#3334B9;strokeColor=#ffffff;dashed=0;verticalLabelPosition=bottom;verticalAlign=top;align=center;html=1;fontSize=12;fontStyle=0;aspect=fixed;shape=mxgraph.aws4.resourceIcon;resIcon=mxgraph.aws4.rds;" parent="37" vertex="1">
                    <mxGeometry x="469.5" y="39" width="78" height="78" as="geometry"/>
                </mxCell>
                <mxCell id="176" style="edgeStyle=none;html=1;entryX=0.5;entryY=0;entryDx=0;entryDy=0;entryPerimeter=0;strokeColor=#000000;fillColor=#000000;" parent="1" source="38" target="59" edge="1">
                    <mxGeometry relative="1" as="geometry"/>
                </mxCell>
                <mxCell id="38" value="Private subnet" style="points=[[0,0],[0.25,0],[0.5,0],[0.75,0],[1,0],[1,0.25],[1,0.5],[1,0.75],[1,1],[0.75,1],[0.5,1],[0.25,1],[0,1],[0,0.75],[0,0.5],[0,0.25]];outlineConnect=0;gradientColor=none;html=1;whiteSpace=wrap;fontSize=12;fontStyle=0;container=1;pointerEvents=0;collapsible=0;recursiveResize=0;shape=mxgraph.aws4.group;grIcon=mxgraph.aws4.group_security_group;grStroke=0;strokeColor=#147EBA;fillColor=#E6F2F8;verticalAlign=top;align=left;spacingLeft=30;fontColor=#147EBA;dashed=0;" parent="1" vertex="1">
                    <mxGeometry x="342" y="95" width="217.75" height="183" as="geometry"/>
                </mxCell>
                <mxCell id="73" value="App" style="points=[[0,0,0],[0.25,0,0],[0.5,0,0],[0.75,0,0],[1,0,0],[0,1,0],[0.25,1,0],[0.5,1,0],[0.75,1,0],[1,1,0],[0,0.25,0],[0,0.5,0],[0,0.75,0],[1,0.25,0],[1,0.5,0],[1,0.75,0]];outlineConnect=0;fontColor=#232F3E;gradientColor=#F78E04;gradientDirection=north;fillColor=#D05C17;strokeColor=#ffffff;dashed=0;verticalLabelPosition=bottom;verticalAlign=top;align=center;html=1;fontSize=12;fontStyle=0;aspect=fixed;shape=mxgraph.aws4.resourceIcon;resIcon=mxgraph.aws4.ec2;" parent="38" vertex="1">
                    <mxGeometry x="16" y="66" width="78" height="78" as="geometry"/>
                </mxCell>
                <mxCell id="144" value="App" style="points=[[0,0,0],[0.25,0,0],[0.5,0,0],[0.75,0,0],[1,0,0],[0,1,0],[0.25,1,0],[0.5,1,0],[0.75,1,0],[1,1,0],[0,0.25,0],[0,0.5,0],[0,0.75,0],[1,0.25,0],[1,0.5,0],[1,0.75,0]];outlineConnect=0;fontColor=#232F3E;gradientColor=#F78E04;gradientDirection=north;fillColor=#D05C17;strokeColor=#ffffff;dashed=0;verticalLabelPosition=bottom;verticalAlign=top;align=center;html=1;fontSize=12;fontStyle=0;aspect=fixed;shape=mxgraph.aws4.resourceIcon;resIcon=mxgraph.aws4.ec2;" parent="38" vertex="1">
                    <mxGeometry x="119.25" y="63" width="78" height="78" as="geometry"/>
                </mxCell>
                <mxCell id="154" style="edgeStyle=none;html=1;entryX=0.5;entryY=0;entryDx=0;entryDy=0;strokeColor=#000000;fillColor=#000000;" parent="1" source="76" target="38" edge="1">
                    <mxGeometry relative="1" as="geometry"/>
                </mxCell>
                <mxCell id="155" style="edgeStyle=none;html=1;entryX=0.5;entryY=0;entryDx=0;entryDy=0;strokeColor=#000000;fillColor=#000000;" parent="1" source="76" target="109" edge="1">
                    <mxGeometry relative="1" as="geometry"/>
                </mxCell>
                <mxCell id="76" value="ELB&lt;br&gt;(ALB)" style="points=[[0,0,0],[0.25,0,0],[0.5,0,0],[0.75,0,0],[1,0,0],[0,1,0],[0.25,1,0],[0.5,1,0],[0.75,1,0],[1,1,0],[0,0.25,0],[0,0.5,0],[0,0.75,0],[1,0.25,0],[1,0.5,0],[1,0.75,0]];outlineConnect=0;fontColor=#232F3E;gradientColor=#945DF2;gradientDirection=north;fillColor=#5A30B5;strokeColor=#ffffff;dashed=0;verticalLabelPosition=bottom;verticalAlign=top;align=center;html=1;fontSize=12;fontStyle=0;aspect=fixed;shape=mxgraph.aws4.resourceIcon;resIcon=mxgraph.aws4.elastic_load_balancing;" parent="1" vertex="1">
                    <mxGeometry x="609" y="-28" width="78" height="78" as="geometry"/>
                </mxCell>
                <mxCell id="54" value="VPC Endpoint" style="outlineConnect=0;fontColor=#232F3E;gradientColor=none;fillColor=#4D27AA;strokeColor=none;dashed=0;verticalLabelPosition=bottom;verticalAlign=top;align=center;html=1;fontSize=12;fontStyle=0;aspect=fixed;pointerEvents=1;shape=mxgraph.aws4.endpoints;" parent="1" vertex="1">
                    <mxGeometry x="989" y="-141" width="78" height="78" as="geometry"/>
                </mxCell>
                <mxCell id="148" style="edgeStyle=none;html=1;entryX=0.5;entryY=0;entryDx=0;entryDy=0;strokeColor=#000000;fillColor=#000000;" parent="1" source="57" target="126" edge="1">
                    <mxGeometry relative="1" as="geometry"/>
                </mxCell>
                <mxCell id="57" value="ELB&lt;br&gt;(ALB)" style="points=[[0,0,0],[0.25,0,0],[0.5,0,0],[0.75,0,0],[1,0,0],[0,1,0],[0.25,1,0],[0.5,1,0],[0.75,1,0],[1,1,0],[0,0.25,0],[0,0.5,0],[0,0.75,0],[1,0.25,0],[1,0.5,0],[1,0.75,0]];outlineConnect=0;fontColor=#232F3E;gradientColor=#945DF2;gradientDirection=north;fillColor=#5A30B5;strokeColor=#ffffff;dashed=0;verticalLabelPosition=bottom;verticalAlign=top;align=center;html=1;fontSize=12;fontStyle=0;aspect=fixed;shape=mxgraph.aws4.resourceIcon;resIcon=mxgraph.aws4.elastic_load_balancing;" parent="1" vertex="1">
                    <mxGeometry x="610.5" y="-339" width="78" height="78" as="geometry"/>
                </mxCell>
                <mxCell id="56" value="IGW" style="outlineConnect=0;fontColor=#232F3E;gradientColor=none;fillColor=#4D27AA;strokeColor=none;dashed=0;verticalLabelPosition=bottom;verticalAlign=top;align=center;html=1;fontSize=12;fontStyle=0;aspect=fixed;pointerEvents=1;shape=mxgraph.aws4.internet_gateway;" parent="1" vertex="1">
                    <mxGeometry x="609" y="-471" width="78" height="78" as="geometry"/>
                </mxCell>
                <mxCell id="122" value="IAM" style="points=[[0,0,0],[0.25,0,0],[0.5,0,0],[0.75,0,0],[1,0,0],[0,1,0],[0.25,1,0],[0.5,1,0],[0.75,1,0],[1,1,0],[0,0.25,0],[0,0.5,0],[0,0.75,0],[1,0.25,0],[1,0.5,0],[1,0.75,0]];outlineConnect=0;fontColor=#232F3E;gradientColor=#F54749;gradientDirection=north;fillColor=#C7131F;strokeColor=#ffffff;dashed=0;verticalLabelPosition=bottom;verticalAlign=top;align=center;html=1;fontSize=12;fontStyle=0;aspect=fixed;shape=mxgraph.aws4.resourceIcon;resIcon=mxgraph.aws4.identity_and_access_management;" parent="1" vertex="1">
                    <mxGeometry x="1183" y="-246" width="78" height="78" as="geometry"/>
                </mxCell>
                <mxCell id="123" value="Private subnet" style="points=[[0,0],[0.25,0],[0.5,0],[0.75,0],[1,0],[1,0.25],[1,0.5],[1,0.75],[1,1],[0.75,1],[0.5,1],[0.25,1],[0,1],[0,0.75],[0,0.5],[0,0.25]];outlineConnect=0;gradientColor=none;html=1;whiteSpace=wrap;fontSize=12;fontStyle=0;container=1;pointerEvents=0;collapsible=0;recursiveResize=0;shape=mxgraph.aws4.group;grIcon=mxgraph.aws4.group_security_group;grStroke=0;strokeColor=#147EBA;fillColor=#E6F2F8;verticalAlign=top;align=left;spacingLeft=30;fontColor=#147EBA;dashed=0;" parent="1" vertex="1">
                    <mxGeometry x="340" y="-199" width="229" height="177" as="geometry"/>
                </mxCell>
                <mxCell id="45" value="Web" style="points=[[0,0,0],[0.25,0,0],[0.5,0,0],[0.75,0,0],[1,0,0],[0,1,0],[0.25,1,0],[0.5,1,0],[0.75,1,0],[1,1,0],[0,0.25,0],[0,0.5,0],[0,0.75,0],[1,0.25,0],[1,0.5,0],[1,0.75,0]];outlineConnect=0;fontColor=#232F3E;gradientColor=#F78E04;gradientDirection=north;fillColor=#D05C17;strokeColor=#ffffff;dashed=0;verticalLabelPosition=bottom;verticalAlign=top;align=center;html=1;fontSize=12;fontStyle=0;aspect=fixed;shape=mxgraph.aws4.resourceIcon;resIcon=mxgraph.aws4.ec2;" parent="123" vertex="1">
                    <mxGeometry x="21" y="58" width="78" height="78" as="geometry"/>
                </mxCell>
                <mxCell id="126" value="Private subnet" style="points=[[0,0],[0.25,0],[0.5,0],[0.75,0],[1,0],[1,0.25],[1,0.5],[1,0.75],[1,1],[0.75,1],[0.5,1],[0.25,1],[0,1],[0,0.75],[0,0.5],[0,0.25]];outlineConnect=0;gradientColor=none;html=1;whiteSpace=wrap;fontSize=12;fontStyle=0;container=1;pointerEvents=0;collapsible=0;recursiveResize=0;shape=mxgraph.aws4.group;grIcon=mxgraph.aws4.group_security_group;grStroke=0;strokeColor=#147EBA;fillColor=#E6F2F8;verticalAlign=top;align=left;spacingLeft=30;fontColor=#147EBA;dashed=0;" parent="1" vertex="1">
                    <mxGeometry x="731.75" y="-197" width="225.5" height="169" as="geometry"/>
                </mxCell>
                <mxCell id="114" value="" style="endArrow=none;html=1;strokeColor=#000000;fillColor=#000000;startArrow=none;" parent="1" edge="1">
                    <mxGeometry width="50" height="50" relative="1" as="geometry">
                        <mxPoint x="572" y="-100" as="sourcePoint"/>
                        <mxPoint x="711" y="-100" as="targetPoint"/>
                    </mxGeometry>
                </mxCell>
                <mxCell id="131" style="edgeStyle=none;html=1;strokeColor=#000000;fillColor=#000000;" parent="1" source="66" target="56" edge="1">
                    <mxGeometry relative="1" as="geometry"/>
                </mxCell>
                <mxCell id="141" value="" style="endArrow=none;html=1;strokeColor=#000000;fillColor=#000000;entryX=0;entryY=0.5;entryDx=0;entryDy=0;entryPerimeter=0;exitX=1;exitY=0.5;exitDx=0;exitDy=0;exitPerimeter=0;" parent="1" source="45" target="140" edge="1">
                    <mxGeometry width="50" height="50" relative="1" as="geometry">
                        <mxPoint x="455.0000000000002" y="-103" as="sourcePoint"/>
                        <mxPoint x="840" y="-100" as="targetPoint"/>
                    </mxGeometry>
                </mxCell>
                <mxCell id="140" value="Web" style="points=[[0,0,0],[0.25,0,0],[0.5,0,0],[0.75,0,0],[1,0,0],[0,1,0],[0.25,1,0],[0.5,1,0],[0.75,1,0],[1,1,0],[0,0.25,0],[0,0.5,0],[0,0.75,0],[1,0.25,0],[1,0.5,0],[1,0.75,0]];outlineConnect=0;fontColor=#232F3E;gradientColor=#F78E04;gradientDirection=north;fillColor=#D05C17;strokeColor=#ffffff;dashed=0;verticalLabelPosition=bottom;verticalAlign=top;align=center;html=1;fontSize=12;fontStyle=0;aspect=fixed;shape=mxgraph.aws4.resourceIcon;resIcon=mxgraph.aws4.ec2;" parent="1" vertex="1">
                    <mxGeometry x="467" y="-141" width="78" height="78" as="geometry"/>
                </mxCell>
                <mxCell id="147" style="edgeStyle=none;html=1;exitX=0;exitY=0.5;exitDx=0;exitDy=0;exitPerimeter=0;entryX=0.501;entryY=0.063;entryDx=0;entryDy=0;entryPerimeter=0;strokeColor=#000000;fillColor=#000000;" parent="1" source="57" target="40" edge="1">
                    <mxGeometry relative="1" as="geometry"/>
                </mxCell>
                <mxCell id="169" value="Auto Scaling group" style="points=[[0,0],[0.25,0],[0.5,0],[0.75,0],[1,0],[1,0.25],[1,0.5],[1,0.75],[1,1],[0.75,1],[0.5,1],[0.25,1],[0,1],[0,0.75],[0,0.5],[0,0.25]];outlineConnect=0;gradientColor=none;html=1;whiteSpace=wrap;fontSize=12;fontStyle=0;container=1;pointerEvents=0;collapsible=0;recursiveResize=0;shape=mxgraph.aws4.groupCenter;grIcon=mxgraph.aws4.group_auto_scaling_group;grStroke=1;strokeColor=#D86613;fillColor=none;verticalAlign=top;align=center;fontColor=#D86613;dashed=1;spacingTop=25;" parent="1" vertex="1">
                    <mxGeometry x="351" y="143" width="597" height="127" as="geometry"/>
                </mxCell>
                <mxCell id="74" value="App" style="points=[[0,0,0],[0.25,0,0],[0.5,0,0],[0.75,0,0],[1,0,0],[0,1,0],[0.25,1,0],[0.5,1,0],[0.75,1,0],[1,1,0],[0,0.25,0],[0,0.5,0],[0,0.75,0],[1,0.25,0],[1,0.5,0],[1,0.75,0]];outlineConnect=0;fontColor=#232F3E;gradientColor=#F78E04;gradientDirection=north;fillColor=#D05C17;strokeColor=#ffffff;dashed=0;verticalLabelPosition=bottom;verticalAlign=top;align=center;html=1;fontSize=12;fontStyle=0;aspect=fixed;shape=mxgraph.aws4.resourceIcon;resIcon=mxgraph.aws4.ec2;" parent="169" vertex="1">
                    <mxGeometry x="401" y="16" width="78" height="78" as="geometry"/>
                </mxCell>
                <mxCell id="143" value="App" style="points=[[0,0,0],[0.25,0,0],[0.5,0,0],[0.75,0,0],[1,0,0],[0,1,0],[0.25,1,0],[0.5,1,0],[0.75,1,0],[1,1,0],[0,0.25,0],[0,0.5,0],[0,0.75,0],[1,0.25,0],[1,0.5,0],[1,0.75,0]];outlineConnect=0;fontColor=#232F3E;gradientColor=#F78E04;gradientDirection=north;fillColor=#D05C17;strokeColor=#ffffff;dashed=0;verticalLabelPosition=bottom;verticalAlign=top;align=center;html=1;fontSize=12;fontStyle=0;aspect=fixed;shape=mxgraph.aws4.resourceIcon;resIcon=mxgraph.aws4.ec2;" parent="169" vertex="1">
                    <mxGeometry x="507" y="15" width="78" height="78" as="geometry"/>
                </mxCell>
                <mxCell id="172" value="Auto Scaling group" style="points=[[0,0],[0.25,0],[0.5,0],[0.75,0],[1,0],[1,0.25],[1,0.5],[1,0.75],[1,1],[0.75,1],[0.5,1],[0.25,1],[0,1],[0,0.75],[0,0.5],[0,0.25]];outlineConnect=0;gradientColor=none;html=1;whiteSpace=wrap;fontSize=12;fontStyle=0;container=1;pointerEvents=0;collapsible=0;recursiveResize=0;shape=mxgraph.aws4.groupCenter;grIcon=mxgraph.aws4.group_auto_scaling_group;grStroke=1;strokeColor=#D86613;fillColor=none;verticalAlign=top;align=center;fontColor=#D86613;dashed=1;spacingTop=25;" parent="1" vertex="1">
                    <mxGeometry x="353" y="-170" width="601" height="130" as="geometry"/>
                </mxCell>
                <mxCell id="71" value="Web" style="points=[[0,0,0],[0.25,0,0],[0.5,0,0],[0.75,0,0],[1,0,0],[0,1,0],[0.25,1,0],[0.5,1,0],[0.75,1,0],[1,1,0],[0,0.25,0],[0,0.5,0],[0,0.75,0],[1,0.25,0],[1,0.5,0],[1,0.75,0]];outlineConnect=0;fontColor=#232F3E;gradientColor=#F78E04;gradientDirection=north;fillColor=#D05C17;strokeColor=#ffffff;dashed=0;verticalLabelPosition=bottom;verticalAlign=top;align=center;html=1;fontSize=12;fontStyle=0;aspect=fixed;shape=mxgraph.aws4.resourceIcon;resIcon=mxgraph.aws4.ec2;" parent="172" vertex="1">
                    <mxGeometry x="399" y="29" width="78" height="78" as="geometry"/>
                </mxCell>
                <mxCell id="142" value="Web" style="points=[[0,0,0],[0.25,0,0],[0.5,0,0],[0.75,0,0],[1,0,0],[0,1,0],[0.25,1,0],[0.5,1,0],[0.75,1,0],[1,1,0],[0,0.25,0],[0,0.5,0],[0,0.75,0],[1,0.25,0],[1,0.5,0],[1,0.75,0]];outlineConnect=0;fontColor=#232F3E;gradientColor=#F78E04;gradientDirection=north;fillColor=#D05C17;strokeColor=#ffffff;dashed=0;verticalLabelPosition=bottom;verticalAlign=top;align=center;html=1;fontSize=12;fontStyle=0;aspect=fixed;shape=mxgraph.aws4.resourceIcon;resIcon=mxgraph.aws4.ec2;" parent="172" vertex="1">
                    <mxGeometry x="505" y="26" width="78" height="78" as="geometry"/>
                </mxCell>
                <mxCell id="177" style="edgeStyle=none;html=1;entryX=0.5;entryY=0;entryDx=0;entryDy=0;entryPerimeter=0;strokeColor=#000000;fillColor=#000000;" parent="1" target="59" edge="1">
                    <mxGeometry relative="1" as="geometry">
                        <mxPoint x="823" y="281" as="sourcePoint"/>
                    </mxGeometry>
                </mxCell>
                <mxCell id="178" value="EventBridge&lt;br&gt;" style="points=[[0,0,0],[0.25,0,0],[0.5,0,0],[0.75,0,0],[1,0,0],[0,1,0],[0.25,1,0],[0.5,1,0],[0.75,1,0],[1,1,0],[0,0.25,0],[0,0.5,0],[0,0.75,0],[1,0.25,0],[1,0.5,0],[1,0.75,0]];outlineConnect=0;fontColor=#232F3E;gradientColor=#FF4F8B;gradientDirection=north;fillColor=#BC1356;strokeColor=#ffffff;dashed=0;verticalLabelPosition=bottom;verticalAlign=top;align=center;html=1;fontSize=12;fontStyle=0;aspect=fixed;shape=mxgraph.aws4.resourceIcon;resIcon=mxgraph.aws4.eventbridge;" parent="1" vertex="1">
                    <mxGeometry x="1181" y="-401" width="78" height="78" as="geometry"/>
                </mxCell>
                <mxCell id="179" value="Lambda" style="points=[[0,0,0],[0.25,0,0],[0.5,0,0],[0.75,0,0],[1,0,0],[0,1,0],[0.25,1,0],[0.5,1,0],[0.75,1,0],[1,1,0],[0,0.25,0],[0,0.5,0],[0,0.75,0],[1,0.25,0],[1,0.5,0],[1,0.75,0]];outlineConnect=0;fontColor=#232F3E;gradientColor=#F78E04;gradientDirection=north;fillColor=#D05C17;strokeColor=#ffffff;dashed=0;verticalLabelPosition=bottom;verticalAlign=top;align=center;html=1;fontSize=12;fontStyle=0;aspect=fixed;shape=mxgraph.aws4.resourceIcon;resIcon=mxgraph.aws4.lambda;" parent="1" vertex="1">
                    <mxGeometry x="921" y="-401" width="78" height="78" as="geometry"/>
                </mxCell>
                <mxCell id="181" value="" style="shape=image;imageAspect=0;aspect=fixed;verticalLabelPosition=bottom;verticalAlign=top;strokeColor=#FFFFFF;fillColor=#1D0B00;image=data:image/png,iVBORw0KGgoAAAANSUhEUgAAAWwAAABSCAYAAABwmO7QAAAMP2lDQ1BJQ0MgUHJvZmlsZQAASImVVwdYU8kWnluSkEBoAQSkhN4EESkBpITQQu8INkISIJQYA0HFjiwquBZURMCGroooWAGxI3YWxd4XCwrKuliwK29SQNd95Xvn++be//5z5j9nzp1bBgC1ExyRKBtVByBHmCeOCfKjj09KppN6AAIwoA0cgTmHmytiRkWFAWhD57/buxvQG9pVe6nWP/v/q2nw+LlcAJAoiFN5udwciA8AgFdzReI8AIhS3mx6nkiKYQNaYpggxIulOF2Oq6U4VY73yHziYlgQtwGgpMLhiNMBUL0MeXo+Nx1qqPZD7CjkCYQAqNEh9s7JmcqDOAVia+gjgliqz0j9QSf9b5qpw5ocTvowls9FZkr+glxRNmfm/1mO/2052ZKhGJawqWSIg2Okc4Z1u5U1NVSKVSDuE6ZGREKsCfEHAU/mDzFKyZAEx8v9UQNuLgvWDOhA7Mjj+IdCbABxoDA7IkzBp6YJAtkQwxWCzhDkseMg1oV4MT83IFbhs0k8NUYRC21ME7OYCv4cRyyLK431QJIVz1Tov87gsxX6mGpBRlwixBSIzfMFCREQq0LskJsVG6rwGVeQwYoY8hFLYqT5m0McwxcG+cn1sfw0cWCMwr8kJ3dovtimDAE7QoH35WXEBcvrg7VxObL84Vywy3whM35Ih587PmxoLjy+f4B87lgPXxgfq9D5IMrzi5GPxSmi7CiFP27Kzw6S8qYQO+fmxyrG4gl5cEHK9fE0UV5UnDxPvCCTExIlzwdfAcIAC/gDOpDAlgqmgkwg6Ohr6oNX8p5AwAFikA74wF7BDI1IlPUI4TEWFIA/IeKD3OFxfrJePsiH/NdhVn60B2my3nzZiCzwFOIcEAqy4bVENko4HC0BPIGM4B/RObBxYb7ZsEn7/z0/xH5nmJAJUzCSoYh0tSFPYgDRnxhMDCTa4Pq4N+6Jh8GjL2xOOAN3H5rHd3/CU0In4RHhOqGLcHuKoFD8U5bhoAvqBypqkfpjLXBLqOmC++FeUB0q4zq4PrDHnWEcJu4DI7tAlqXIW1oV+k/af5vBD3dD4Ud2JKPkEWRfsvXPI1VtVV2GVaS1/rE+8lxTh+vNGu75OT7rh+rz4Dn0Z09sMbYfO4udxM5jR7AmQMeOY81YO3ZUiodX1xPZ6hqKFiPLJwvqCP4Rb+jOSiuZ61jn2Ov4Rd6Xx58hfUcD1lTRTLEgPSOPzoRfBD6dLeQ6jKI7OTo5AyD9vshfX2+iZd8NRKf9O7fwDwC8jg8ODh7+zoUcB2CvG3z8D33nrBnw06EMwLlDXIk4X87h0gMBviXU4JOmB4yAGbCG83ECrsAT+IIAEAIiQRxIApNh9hlwnYvBdDAbLADFoBSsAGtAJdgItoAdYDfYB5rAEXASnAEXwWVwHdyFq6cbvAD94B34jCAICaEiNEQPMUYsEDvECWEg3kgAEobEIElICpKOCBEJMhtZiJQiZUglshmpRfYih5CTyHmkE7mNPER6kdfIJxRDVVAt1BC1REejDJSJhqJx6CQ0HZ2GFqBF6DK0Aq1Bd6GN6En0Inod7UJfoAMYwJQxHcwEs8cYGAuLxJKxNEyMzcVKsHKsBqvHWuB9vop1YX3YR5yI03A6bg9XcDAej3PxafhcfCleie/AG/E2/Cr+EO/HvxGoBAOCHcGDwCaMJ6QTphOKCeWEbYSDhNPwWeomvCMSiTpEK6IbfBaTiJnEWcSlxPXEBuIJYifxMXGARCLpkexIXqRIEoeURyomrSPtIh0nXSF1kz4oKSsZKzkpBSolKwmVCpXKlXYqHVO6ovRM6TNZnWxB9iBHknnkmeTl5K3kFvIlcjf5M0WDYkXxosRRMikLKBWUesppyj3KG2VlZVNld+VoZYHyfOUK5T3K55QfKn9U0VSxVWGpTFSRqCxT2a5yQuW2yhsqlWpJ9aUmU/Ooy6i11FPUB9QPqjRVB1W2Kk91nmqVaqPqFdWXamQ1CzWm2mS1ArVytf1ql9T61MnqluosdY76XPUq9UPqN9UHNGgaYzQiNXI0lmrs1Div0aNJ0rTUDNDkaRZpbtE8pfmYhtHMaCwal7aQtpV2mtatRdSy0mJrZWqVau3W6tDq19bUdtZO0J6hXaV9VLtLB9Ox1GHrZOss19mnc0Pn0wjDEcwR/BFLRtSPuDLive5IXV9dvm6JboPudd1PenS9AL0svZV6TXr39XF9W/1o/en6G/RP6/eN1BrpOZI7smTkvpF3DFADW4MYg1kGWwzaDQYMjQyDDEWG6wxPGfYZ6Rj5GmUarTY6ZtRrTDP2NhYYrzY+bvycrk1n0rPpFfQ2er+JgUmwicRks0mHyWdTK9N400LTBtP7ZhQzhlma2WqzVrN+c2PzcPPZ5nXmdyzIFgyLDIu1Fmct3ltaWSZaLrJssuyx0rViWxVY1Vnds6Za+1hPs66xvmZDtGHYZNmst7lsi9q62GbYVtleskPtXO0EduvtOkcRRrmPEo6qGXXTXsWeaZ9vX2f/0EHHIcyh0KHJ4eVo89HJo1eOPjv6m6OLY7bjVse7YzTHhIwpHNMy5rWTrRPXqcrp2ljq2MCx88Y2j33lbOfMd97gfMuF5hLussil1eWrq5ur2LXetdfN3C3FrdrtJkOLEcVYyjjnTnD3c5/nfsT9o4erR57HPo+/PO09szx3evaMsxrHH7d13GMvUy+O12avLm+6d4r3Ju8uHxMfjk+NzyNfM1+e7zbfZ0wbZiZzF/Oln6Of2O+g33uWB2sO64Q/5h/kX+LfEaAZEB9QGfAg0DQwPbAusD/IJWhW0IlgQnBo8Mrgm2xDNpddy+4PcQuZE9IWqhIaG1oZ+ijMNkwc1hKOhoeErwq/F2ERIYxoigSR7MhVkfejrKKmRR2OJkZHRVdFP40ZEzM75mwsLXZK7M7Yd3F+ccvj7sZbx0viWxPUEiYm1Ca8T/RPLEvsGj96/JzxF5P0kwRJzcmk5ITkbckDEwImrJnQPdFlYvHEG5OsJs2YdH6y/uTsyUenqE3hTNmfQkhJTNmZ8oUTyanhDKSyU6tT+7ks7lruC54vbzWvl+/FL+M/S/NKK0vrSfdKX5Xem+GTUZ7RJ2AJKgWvMoMzN2a+z4rM2p41mJ2Y3ZCjlJOSc0ioKcwStk01mjpjaqfITlQs6prmMW3NtH5xqHhbLpI7Kbc5Twv+yLdLrCW/SB7me+dX5X+YnjB9/wyNGcIZ7TNtZy6Z+awgsOC3Wfgs7qzW2SazF8x+OIc5Z/NcZG7q3NZ5ZvOK5nXPD5q/YwFlQdaC3wsdC8sK3y5MXNhSZFg0v+jxL0G/1BWrFouLby7yXLRxMb5YsLhjydgl65Z8K+GVXCh1LC0v/bKUu/TCr2N+rfh1cFnaso7lrss3rCCuEK64sdJn5Y4yjbKCsserwlc1rqavLln9ds2UNefLncs3rqWslaztqgiraF5nvm7Fui+VGZXXq/yqGqoNqpdUv1/PW39lg++G+o2GG0s3ftok2HRrc9DmxhrLmvItxC35W55uTdh69jfGb7Xb9LeVbvu6Xbi9a0fMjrZat9ranQY7l9ehdZK63l0Td13e7b+7ud6+fnODTkPpHrBHsuf53pS9N/aF7mvdz9hff8DiQPVB2sGSRqRxZmN/U0ZTV3NSc+ehkEOtLZ4tBw87HN5+xORI1VHto8uPUY4VHRs8XnB84IToRN/J9JOPW6e03j01/tS1tui2jtOhp8+dCTxz6izz7PFzXueOnPc4f+gC40LTRdeLje0u7Qd/d/n9YIdrR+Mlt0vNl90vt3SO6zx2xefKyav+V89cY1+7eD3ieueN+Bu3bk682XWLd6vndvbtV3fy73y+O/8e4V7JffX75Q8MHtT8YfNHQ5dr19GH/g/bH8U+uvuY+/jFk9wnX7qLnlKflj8zflbb49RzpDew9/LzCc+7X4hefO4r/lPjz+qX1i8P/OX7V3v/+P7uV+JXg6+XvtF7s/2t89vWgaiBB+9y3n1+X/JB78OOj4yPZz8lfnr2efoX0peKrzZfW76Ffrs3mDM4KOKIObJfAQw2NC0NgNfbAaAmAUCD+zPKBPn+T2aIfM8qQ+A/YfkeUWauANTD//foPvh3cxOAPVvh9gvqq00EIIoKQJw7QMeOHW5DezXZvlJqRLgP2BTwNTUnFfwbk+85f8j75zOQqjqDn8//AjA5fG60pR8cAAAAimVYSWZNTQAqAAAACAAEARoABQAAAAEAAAA+ARsABQAAAAEAAABGASgAAwAAAAEAAgAAh2kABAAAAAEAAABOAAAAAAAAAJAAAAABAAAAkAAAAAEAA5KGAAcAAAASAAAAeKACAAQAAAABAAABbKADAAQAAAABAAAAUgAAAABBU0NJSQAAAFNjcmVlbnNob3SYgy3uAAAACXBIWXMAABYlAAAWJQFJUiTwAAAB1WlUWHRYTUw6Y29tLmFkb2JlLnhtcAAAAAAAPHg6eG1wbWV0YSB4bWxuczp4PSJhZG9iZTpuczptZXRhLyIgeDp4bXB0az0iWE1QIENvcmUgNi4wLjAiPgogICA8cmRmOlJERiB4bWxuczpyZGY9Imh0dHA6Ly93d3cudzMub3JnLzE5OTkvMDIvMjItcmRmLXN5bnRheC1ucyMiPgogICAgICA8cmRmOkRlc2NyaXB0aW9uIHJkZjphYm91dD0iIgogICAgICAgICAgICB4bWxuczpleGlmPSJodHRwOi8vbnMuYWRvYmUuY29tL2V4aWYvMS4wLyI+CiAgICAgICAgIDxleGlmOlBpeGVsWURpbWVuc2lvbj44MjwvZXhpZjpQaXhlbFlEaW1lbnNpb24+CiAgICAgICAgIDxleGlmOlBpeGVsWERpbWVuc2lvbj4zNjQ8L2V4aWY6UGl4ZWxYRGltZW5zaW9uPgogICAgICAgICA8ZXhpZjpVc2VyQ29tbWVudD5TY3JlZW5zaG90PC9leGlmOlVzZXJDb21tZW50PgogICAgICA8L3JkZjpEZXNjcmlwdGlvbj4KICAgPC9yZGY6UkRGPgo8L3g6eG1wbWV0YT4KyQcwIQAAABxpRE9UAAAAAgAAAAAAAAApAAAAKAAAACkAAAApAAAMjjAumZQAAAxaSURBVHgB7FwJWFU3Fj4o7iLu1bririjFDVyqVgdRi4poxdGxjpVa1+pUx7rLoOiMltrPihQtKiNC0c5QGZy6YOvS+rWKO1YRQRQRF1w+XD9cJ+fSG3KX93j4nvIuc/J9+E6Sk9zcP7l/kpMTHWrXrvcCKBAChAAhQAjYPQIORNh230fUQEKAECAEJASIsGkgEAKEACFgEASIsA3SUdRMQoAQIASIsGkMEAKEACFgEASIsA3SUdRMQoAQIASIsGkMEAKEACFgEASIsA3SUdRMQoAQIASIsGkMEAKEACFgEASIsA3SUdRMQoAQIASIsGkMEAKEACFgEASIsA3SUdRMQoAQIASIsGkMEAKEACFgEASIsA3SUdRMQoAQIASIsGkMEAKEACFgEASIsA3SUdRMQoAQIASIsGkMEAKEACFgEASIsA3SUdRMQoAQIASIsGkMEAKEACFgEASIsA3SUdRMQoAQIASIsGkMEAKEACFgEASIsA3SUdRMQoAQIASIsGkMEAKEACFgEASIsA3SUdRMQoAQIASIsGkMEAKEACFgEAT+rwh7qlsVqVs61y4HHm+U4110+HqeJK9JvguyzDNJIAQIAULAThAo8YQtk/SUdvlkbQnuSNpE3pYgRTqEACHwOhEo0YSNZF0UolYDj6QdeuquOpnirxmBqVMnQ+/evaB161ZQvnx5yMvLg5SUczB58sdw9eq119waehwhUHwIlEjCRnPHP71qmUVVNH2I5hF1IdT7854cdbLdxcuUcYQRI/xh1Kg/QtOmTaFixYrg6Fganjx5Ajk5OZCRcRGOHTsOX3zxJTx69Mju2q/XIGdnZ9i5czu4uDTWy4aOHbvAlStXdPMosQCBKlWcYP78udC9e1eoVasWVKpUCUqXLg0PHjyAa9euQXp6BnzzTSzDendBIR2pXbu2bPyE8BycMFNTz/N4SRRGjhwBAQEfSK+Wm5sLw4aNKNbXLHGEbY6sZTOHSNYy+lgOV+N65G3vpD1+fAAsXDgPypYtK7+OyV8k8DVrwmHFihB4/vy5ST17yDh37jQgaeuFGzdywM2tg14Wpf2OQPXq1WHdujBG1N3AwcGhUFxwUp8+fQYcPpykqztgQD/YuDGC502bNgO2bv2Wx0uiEB8fB56enaVXe/r0KdSv71Ksr1niCPvsn+prAC2KacMUcdsjaeMqaceOBEZc7TTvXFjC/fv3oV8/H7a6ulCYarHkt2/vLr2b+PDTp3+DixcvQaNGDWH79u9h1arVYjbJAgJt2rRmGG2TdlpCskViXNw2ydykVibCJsJWjwmr4mgGUa+Qi0LW4sP17N8vW5dYry3lgwf3M/NHE02VSMaXLmXC9evX2Ra4JtStWxdq1qypq4dmBdzq2VtYufIzybwjtysychPMmTNfjtKvGQTQ3h8dvQlKlSql0Hrx4gVkZ2dDVla2ZBZr0KA+vPlmXahQoYJCDyOrV6+BpUv/oUgnwibCVgwIayJI1Gq7tbUEq0faraOzrGmmzcrOnPkXmDVrpqK+nJybsGDBIoiPT1CkY6RFi+bMFPIloB1SDHho5+HRldm6n4rJxS7v3ZsoHTLKDfH07C5NQnKcfvURQPI9c+akhoQTErazsRHIJvEbmoLjxo2F2bP/qjE/zZgxC2JiYrk+ETYRNh8M1grq1bWtTBhqE4u1k4C174nl8aNMTf0NypQpw6vDA8VBg/zg2bNnPE1PmDdvNkybNlWRZY+r13379kCrVi2ldqJXSKNGzRRtpog+Alu2xECvXj14Jp5TBAR8xMxLu3ianoCH1gcPHoCGDRvwbDXuRNhE2HxwWCuoCRs9O/QOF4v6HPUq2x4IG1fKw4b58Vc5fz4NevTozeOFCaGhq+C994ZyNTSJtGypXHnXqFGD56OJBT9eDGg/7tmzh/SLZLBly7cm7eDoneDu7i6tlB8+fAhpaelw4sRJk14qTk6V2cFp/oUm9A7BLTsGXP27u3eSZPmfu3dzTe4K8PC1bVtXZttvyya1snDhQgacOnWKecvclIvr/mJ7UR/D48d5cO/efa6HNmFX1zaSlwV6phw/fgIyMy/zfEuFomJiab2oh2cZu3d/ryji7z8KDhz4SZFmKlKuXDk4evRXhfls7NgA7j3yMoSN5yzojok7u6pVneHcuVQ2Bk7B7du3TTWDp4v9ce/ePdYnj3menoD97uTkxLPu3LlT6MF6tWrV2NhykxYHeOj644/7FM+hQ0cO58sLSKLqIPpb22p1jc/QM7UUp1kE7dHHjh3ip/5Imp07dyuSext+RBkZqQqvEl/foXDoUIF3wNWrmfwZGzZESp4lsbGboXlz5Uo3MHAxrF37Ne8O/GgWLZoPY8aMVtQvK6AdFUl7+fLPYN++A3Ky9JuSksw+6qqKNFORCRMma0w/o0ePYu5rcwA/Qr1w+XKW1NaIiA162YyEk5i9v46Ul5aWBm+/3RvQAwfNBZUrV9aUwQnAlAlKVLYGE7GewuSIiHAYONCHqyUm7oH33/+Axy0REMOQkOVcNSnpiLRzw4SiEDZOmEuW/A26dPHk44hXygQk0/DwryE0NMzkrlDsD5wcPTy6iVVoZLWZsE8fb2YeOqvRwwRcsMyd+ynUq1dPk5+bexeCg5dBVFQ0G2PkJaIByJIE9UrXXBlbEjY+R20WKU7CDgxcCJMmfcRff9u2/8DEiVN43FJh6dLF3L8Uy6g9A0TCRo8Mb28vXQIWCdvffzh8/vlyhanGXHsmTZoK330Xz1XS0s7qEiNXEASRsJs1awYJCXEmiVooJonoioYuaeogEgQS9urVYcwTZaVaTRMPC1sLixcHa9IxwVpMdCs1kZieniL5WGM2ToxNmrQ0uZsxUYWUnJmZzvsaffZdXFpI6ZYS9vTpH0tkaO4Zch6eoSCxIoGrg9gfN2/eZLum9moVRdxSwt68ORK8vP6gKKsXwYWKq6srufXpgWMqrShELddha7OF2txSnIT9ww+7pK25/K7e3u+y7X6yHLXZr0jY5iqVCdvFpTGzge7XeCZgWdzKoseCo6MjRnlAUhk5cjRfaScnH4caNapL+WoPB7XPuI+Pr2SWwN3CyZNHFNt4+QH5B6kvdCeQsLBwRrJLZVXpVyQINAPhBRPRfxnbK8bFwn5+w+GXX34Vk6QLP9ZioqjQTOStt9xg167/cg280NKzZx8et4VgCWEHBwfBhx+O0zwOscM/db+iIl7g6dDBU+OtJPaHrQg7Lm4rdOvW1eL24Wrb2Tl/R09+2BrYlAkvQ9ZYQ0kmbDRlyG5YONCbNm2lBM1GMT3Cxks3uBLfsWMn7N//k0RI6HWAq6MTJ45A7doFt0tRF/2kV65cxe2IuBKOitqouLmIbmb4saqDeOgorvLUeniRA4lEDkgK6CUzd+4CvmpD4g0PD4W+fb1kNalNjRs3V9grRYKQFbG+9es3sgsi/5ImRrSzf/LJdLbLmaAg77NnU9j1+b5yMYmYbI0Jr1xHQE+PZcuW8Jzg4L9L5gaeYAOhMMJur+M7j2aomTM/5XZ0tEsHBQWyW7nDFeR95MhRZs4Zomil2B+2IGw/P1/46qtQxTPQtx+9YeRFD56bhISsUBzcygWIsGUkdH71bMeohmSMQTxQlO3Xsg+2rQnbnkwi2dmX+EDHSy/du/eS8LD1P2rCxskBt67o360OPj4DGKmt48m4Gu7ffyD/CHgGE3BFjDcYRZswHniqfcEtIex8b5kzbAVdsHIPClrCPsqCtojPjo//N9veevCkOXPmQWRkFI+LBIGJSNbjx0+ULulwpd+Fd97pCbGx0TwZddGTRT4YexWY8IfpCEFBi2DChPE8Z/DgoSZvLHKlIgqFETZOUHXqvMFrzcrKgk6dtKtZVPD1HcTOE8K4Lgpjxoxjh6aJPE3sD1sQttrkhmTt5dWfP08UIiPXszHsLSYBEbYCjoKIObI2958xYTkk76QbeTb9T5vUhC1PFjgxyHJB61+dhNtJJGw54BVi/DBfRVATNh74mPOKwIO+KVMmwpAhg9lh0zLNgaDYRrX9XI9cLCFsrBMnADzgxD/EY/bseeKjFLJ6BYhkjaQtB5EgMA2JHycAUyExcYfCr71v3wGQnHyaq9saE16xjhARsZatUN/lOa6u7nDr1i0et4VgjrBx9/Tzz3v5Y3DSRt95XGGbCjExm9gioDfPVq+yxf6wlrDxejkeIMoBvZ7c3DpqFgpyvp6pzR4I+38AAAD//z83AVoAAA9eSURBVO1caXQVRRa+KOhRBFxYDyqSCBJIQoCYCChGZAkjjCCi7MsgB2VVtoHBg+sAAVGUxVFzlE2IsggDIpuAYdGIbElIQAICssiiRxBXUKa+xqpX3enXr5O8ToNz60/XraquW/1199e3bt3qEhUrVr1Al1ia2awCJVS62jSqqHcPm+TiEjAOjMcp9Vhzkj4//qtTk7DU3XTTTbRr1w7V10cfraRevR5Tsl2mZ89ulJycbFdlKsvJyaHnn/+3Kjt27BCVKFHCkH/44SzVqBGl6oqaGTx4II0aNUJ1M2DAYFqwYJGSkVm/fg3VqnWHUfbzzz9T9eo1TfWFESpUKE9ZWdvVqStWrKKePXsrefv2LVSlSmUlN2uWTNnZu5RszYwePZIGDuyvivv0eYKWLl2m5IJk3GDi1N+SJYsoMfFO1aRy5VtUPlyZVq1a0jvvpKruBg0aQu+/P9+QJ0+eRB07PqLqxo+fQJMnT1GyXeaqq66iPXuy6ZprrjGqz58/T7feGkl//PGHIev349SpUxQdXc+uG1U2dOiTNHz4UCU3bdqCcnJyDTk19Q1q3fpvqu6pp4bRvHnvKdkuEx/fgJYtW6yqML6bb66uZD8yJS41wrYjyOIiRLsbYDceu3YgbIzTy1SqVEn6+uuvlIr09A30yCOdlWyX2br1M6patapdlansm2+OU1xcvCrTCXvTps3Uvv2jqq4wmSuuuMIg4NatH6C+fR+j0qVLq26GDBlOc+emKRmZcBI2rr9ly+bUp09vQfy3id4vprVr11Hnzt2lSDpBuHk527RpTW+99bo6f+TIf9GMGbOVHCpTUEyc+ps3bw7dd9+9qkm1arfTr7+G14hwIuxNm9ZTZGSk0l+7dl367rvvlBws8+GHS6hBg/qqWv9I6vejqIT96acbTPceBggMkVBJfw/cPBOh+itq/SVH2FbrujiI0AlEfTzSirZa//L8aVlnaGrmGSl6cjx69CDhRUeC9QArwimFg7BXrVpN3bv/w0mNqQ6WcZcunSg2NpYiIqrT9deXo1KlSpna6EK4CPvGG28UM47uFB8fL2YEkVShQgWCFSdnCrpO5J0IG2QD0nFKSUlNKC3tXdXEibDDgYlSZJOZNGmCgbmsSkpqRrt375FiWI5OhJ2dvZ3Kly9v6Dl37jzdcos7S3T8+LFiltNNja9v3360ZMlSQw4nYefmZtINN9xg9Pvbb78ZlrxS6pDZuzeXypS5zmjBhG0DlE6QqPbTuoZ+kLMkasgyobx/TNl8rhuvSXv//j107bXXGsM4fvwE1a3bQA7J9jhnzgyDOO0qK1YMuHqOHfuG6tULTKl1y8ItYcOCHTRogCDKiy+unU67sqISdsOGd9FLL403WXh2eqxlToTtxqKzEvaoUU8Ll8FMk5pwYmLq2CJYXSo68VmaFlp0IuyDB/Po6qsvujGtz5KTwoceakvTpwdcJ+PGTaBXX70oh5Ow9fEdOXJEWPV3OQ1L1a1bt5qiomoZMhO2giWQsRK2X77rwIiccwNiyxrErbfycsyZmdtIJ9qaNWvTmTM/6Opd53VSzs3dLabUzdW5ep0bwrZaSqojLXPhwgX6/vvvjamyPn0uCmHDLfHmm9ODWtFS/Y8//khffrlXfJTiZJGjhR0Owg43JmrgNhmre2b16jXUrVsvm5aFL3Ii7EOH9hmzGfR++PBhMctp6EoR/MrwL8uUkjKRXnnlNUMMJ2Hr4zt69CjVr58oVToe09PXUs2aNYw2TNg2UOV2udlU6iX5mRQVQbCO2Usr+403ptODD7ZRo504cRJNmjRZyW4zeAjxMMq0du164c8NTE0LQtgdOrSnKVPMY8DC0a5dOfTZZxm0efOntGPHToLlhdSs2f0Ey1+mwhJ22bJlxKLVrnxk/dVXB2jLli3i+jZSZmaWQdRSl35dXlrYXmAir8HuCNfPgQN7lbusKAu18MtXr17dUPPLL7+Ixbq2Rt6JsAvrcnjuuTFiTaOPuqR+/QbSokWLDbmghG1dBNYXHfXxnTt3TrhsIpROp0xeXi5ddx27RIJiZCW/y4GwrVa2l4QdGxtDq1YtV/i58bWqxloGLyWsMplSU9+mp59+RoqCXANRIqEs7LlzZwtfepI6NysrS0QMdKNvv/1WlekZ6zS4sITdtWtn4QpJUV3Desci4rZtgUgQVSkyV155JR05ckAVeUnYXmCiBh4ks2bNChFJUUfVDh48hN5772IUhyoMkYGvHQu+MunuDSfC3rw53VivkOdFRtYizGpCpQ8+mE9wacnUsuUDtHNnpiHqhH327Fm6/XbnSKXly/8rLOdAJIlO2BkZm6hatVulGrrjjmg6ffq0ku0yWCvC8yLXQNjCtkHJ6hLx24dtM0TbIv1D4/VCqf7Vx2BmzJhFI0eOth2XXSHCA3fs+EIsBJZU1YmJjengwUNKLghh5+TsJCz4IcGyvu22GoSFnWApNfU/wmp7QFUXlrBhpcNal6lr1560Zs3HUsx3xMwEMxSZvCRsLzCR4w527NGjG6WkjFXVuAdRUbGuiFOehEVU+OZlgnsCbgokJ8K23tNhw/4pZlFzZTdBj5ghlStX1qiHywzRLfLZ0SNPUFelSoBw7TrU/dSo1wl71qy3qUWLgMvPzfgQJolwSZmYsCUS2rE4rVVNbZGzOmGjMy9nBk8+OVAQdCCOGQ/zoEFP0fz5C0NeB6yGjRvXm6yhQ4e+poSERqZzC0LYun9Qt8hMHWqCPj1FcWEJe/XqjygmJtro2c0LPXfuLPES36dG4iVhe4GJGniQDGYQ+FCUK1dOtcjLy6P77092FeJn91xhjUSGvzkRdt26sbRy5YdKL0g3Jqa+oxVrjWxBzDvC+mSyxpYPHz6SZs9+V1abjghpRGijnnTCti4QI+QxJqZe0PUfvCeZmVtV5Av6ZcLW0f0zbxf37CX52QyhUEU6YXttYWOA1rhSlMGtMWbMc2rjAcr0VKVKFcK0Ud8cgnq7DR8FIWxrSFd0dFzQF3XBgjS6++7G+rAKTdgzZ75txFfLzjp27CKm8+lSNB0HDOgnXD6jTGVeErYXmJgGH0RITEwQVqH5w40F1DZt2hF8+3YJM61nnx1DvXv3MlVv2LCROnTopMqcCBuNdu/OEiGc16v2WVnZ1Lx5KyXrmcaNG9HCheaNK/pGHLS1+rdBso0a3SvcFEf0rqhduweNSBPpupCVOmGjzGqBY10lOTngFpTn4Wh1GaKMCRso2CSrW8RLn7CN+gIXWT8yxUHY8MeBtGEJ6AmWDeJY161bb+zSwy4yWKGdO3c0IiSsD/XChR9Q//6D9C6MfEEI2+qvPXnylPAtv2zsXoQfE5ZfUtK9YlYwTIwlJp+uwlrYVh824n8REoYdbPKlhs8fRPToox3y6fWSsL3AJN8FBCmYOvVVevjhh/LVIhII2OzcudOwmvFcNG7cUBBe23xx8oj0SEy8m37//XfVTyjCbto0SWyAMm8c2rp1G2EhUXe3YXfoiBFDTTr37s2je+4JzH6gFIYF/Nh6AmnC1fLJJ+nGwmhycgsxOwyEo+ptrYTdq1cPGjfuRb0JYVMYdtrKBXHEXKekjCOss1gTE7YVkT9lq1sExZcyaevWNcZaXH53kBGsKbm1F7oLkhBB0aJFYLuufm5BCDsyMsJws1g/BugPVpHT5hW0KSxh41zdBwpZJkQCYDwlSwb89LJOHr0kbC8wkeN2c3z55YnGR9pNW2sbuEAaNEjI5y4IRdjox84yRTnuB4wJ7CGwPieoS0hoLEjzGJqaEqxwWONuUkbGFtP2fCthow89rlrvU/rNscFLHx92AFeuXMloyoStI2bJ25F2cViulmGEFK2zgeIeIxYQV6xYJsKUzOGQTgOHv3fKlGk0dmwgwsLaviCEjXPxUqWlzTFZTdY+IUN3Wtr71KlTYKt7UQgbm3Q+/niVKTbdTi/K8L+S9u3bqRfSS8KGvnBjgj4LkrBpB24F6yzMqY+NGzfRE08MIMySrMkNYeOcCRPGiZ2xXa2n28qnT58RRkMrkwWuN8QvDDIyNpp8yXq9zON5RghisH+JyHZw/yxfvtSYdcqyYEeEFwK7tm3/bjRhwg6G1J/lVjKUzUGKsLhx9CPBBSJ3Olr1F5d1bdULv/Azz4wWYV3RipCsbRCbix9GYdVfn6Ja20E+ejSwBT5UWJ88H26axYsX5vORy/oTJ06K7dPdqVKlSmGJw5b94iVctGi+8U8KO3KC9YQFK4S46R8iK2Hr6wLh2DiD8YUTE3m9BTli9jVixDBBoF1M/2/R+4AraffuXOEaG2yKWdfbII/wO4ThyWT1OctyHBGRgedR3yCl1+OeYJEcay6hwv9wf19/fZpYr2hhimxCfzj3tdemGa4wfKBeeOFZpebOOxuKf+8cVrKeGTZsCD3+eB8VY63XweJPSXmJpk6dThMnjhcbkLoY1UzYOko2eUmKODql4iLuUOO4FNw2IKyIiAhhQdQR/9OoQT/99BMhUgD/HUE0SHEkvGBNmjQRfusmhoUC1wt+VCX9hF6OATsZQRb4b8T+/fsNveH+p0Zhxu8nJnK82GgUFxcnPuq1hWuitLGpKCPj86ALxPK8ohyx0J2QEC/CC6OMf8rk5e0Tf0zMFhubvgi6OB5MH9ZC6tSpLf7tUYZwLZmZ2WqtItg5ocrj4xsYazv4sOzbt0/MVlcGJflQfRVH/SX38ye7i7Zzj9i187PsUiBrP6+fdTMCjID3CFwWhA0Y3Frb3kNm1iBdM8Vl5Zu1s8QIMAL/TwhcNoSt3xRJ3rIslKtCtgvHEcS85cRF37nXv1INx3i5D0aAEfjrIHBZEvZfB36+EkaAEWAE3CPAhO0eK27JCDACjICvCDBh+wo/K2cEGAFGwD0CTNjuseKWjAAjwAj4igATtq/ws3JGgBFgBNwjwITtHituyQgwAoyArwgwYfsKPytnBBgBRsA9AkzY7rHilowAI8AI+IoAE7av8LNyRoARYATcI8CE7R4rbskIMAKMgK8IMGH7Cj8rZwQYAUbAPQJM2O6x4paMACPACPiKABO2r/CzckaAEWAE3CPAhO0eK27JCDACjICvCDBh+wo/K2cEGAFGwD0CTNjuseKWjAAjwAj4igATtq/ws3JGgBFgBNwjwITtHituyQgwAoyArwgwYfsKPytnBBgBRsA9AkzY7rHilowAI8AI+IoAE7av8LNyRoARYATcI8CE7R4rbskIMAKMgK8IMGH7Cj8rZwQYAUbAPQL/Ayd6xoL6FAOCAAAAAElFTkSuQmCC;" parent="1" vertex="1">
                    <mxGeometry x="1374" y="387.5" width="235.27" height="53" as="geometry"/>
                </mxCell>
                <mxCell id="183" value="CloudFront&lt;br&gt;" style="sketch=0;points=[[0,0,0],[0.25,0,0],[0.5,0,0],[0.75,0,0],[1,0,0],[0,1,0],[0.25,1,0],[0.5,1,0],[0.75,1,0],[1,1,0],[0,0.25,0],[0,0.5,0],[0,0.75,0],[1,0.25,0],[1,0.5,0],[1,0.75,0]];outlineConnect=0;fontColor=#232F3E;gradientColor=#945DF2;gradientDirection=north;fillColor=#5A30B5;strokeColor=#ffffff;dashed=0;verticalLabelPosition=bottom;verticalAlign=top;align=center;html=1;fontSize=12;fontStyle=0;aspect=fixed;shape=mxgraph.aws4.resourceIcon;resIcon=mxgraph.aws4.cloudfront;" vertex="1" parent="1">
                    <mxGeometry x="1181" y="-118" width="78" height="78" as="geometry"/>
                </mxCell>
            </root>
        </mxGraphModel>
    </diagram>
</mxfile>
